<svg xmlns="http://www.w3.org/2000/svg" viewBox="0 0 64 64" id="african-bongo"><polygon fill="#5d6b75" fill-rule="evenodd" points="26.48 29.41 37.52 29.41 39.16 39.2 24.84 39.2 26.48 29.41"></polygon><path fill="#f3e1c0" fill-rule="evenodd" d="M8.67 18.51A1.49 1.49 0 007.18 20v2.27L19.4 23.91l8.47-1.64V20a1.48 1.48 0 00-1.49-1.49zM37.62 18.51A1.48 1.48 0 0036.13 20v2.27L46.8 24.05l10-1.78V20a1.49 1.49 0 00-1.49-1.49z"></path><path fill="#e6a361" fill-rule="evenodd" d="M26,41.73a22,22,0,0,0,2.19-7.38,32.1,32.1,0,0,0-.31-7.71l-9.94-2.16L7.18,26.64a31.81,31.81,0,0,0-.3,7.71,22.11,22.11,0,0,0,2.18,7.38l8.82,1.6Z"></path><path fill="#808a94" fill-rule="evenodd" d="M9.06,41.73V44a1.48,1.48,0,0,0,1.49,1.49h14A1.48,1.48,0,0,0,26,44V41.73Z"></path><path fill="#e6a361" fill-rule="evenodd" d="M54.94,41.73a22.11,22.11,0,0,0,2.18-7.38,31.81,31.81,0,0,0-.3-7.71L46.35,24.31,36.13,26.64a32.1,32.1,0,0,0-.31,7.71A22,22,0,0,0,38,41.73l8.29,1.7Z"></path><path fill="#808a94" fill-rule="evenodd" d="M36.13 22.27H56.82a2.19 2.19 0 010 4.37H36.13a2.19 2.19 0 010-4.37zM38 41.73V44a1.48 1.48 0 001.49 1.49h14A1.48 1.48 0 0054.94 44V41.73zM7.18 22.27H27.87a2.19 2.19 0 010 4.37H7.18a2.19 2.19 0 010-4.37z"></path><path fill="#5d6b75" fill-rule="evenodd" d="M50.31 41.72V44a1.48 1.48 0 01-1.49 1.49h4.63A1.48 1.48 0 0054.94 44V41.72zM21.37 41.72V44a1.49 1.49 0 01-1.49 1.49H24.5A1.49 1.49 0 0026 44V41.72zM52.19 22.27a2.19 2.19 0 010 4.37h4.63a2.19 2.19 0 000-4.37zM23 22.27a2.19 2.19 0 110 4.37h4.85a2.19 2.19 0 000-4.37z"></path><path fill="#e39441" fill-rule="evenodd" d="M26 41.72a22 22 0 002.18-7.37 32.1 32.1 0 00-.31-7.71H24.54a32.1 32.1 0 01.31 7.71 22 22 0 01-2.18 7.37zM53.49 26.64a32.1 32.1 0 01.31 7.71 21.89 21.89 0 01-2.19 7.37h3.33a22 22 0 002.18-7.37 31.81 31.81 0 00-.3-7.71z"></path><path fill="#f0d49c" fill-rule="evenodd" d="M56.82 22.27V20a1.49 1.49 0 00-1.49-1.49H52A1.48 1.48 0 0153.49 20v2.27zM27.87 22.27V20a1.48 1.48 0 00-1.49-1.49H23.05A1.48 1.48 0 0124.54 20v2.27z"></path><path d="M57.82,21.45V20a2.49,2.49,0,0,0-2.49-2.49H37.62A2.49,2.49,0,0,0,35.13,20v1.45a3.17,3.17,0,0,0-.13,6c0,.28-.07.61-.11,1H29.11c0-.38-.08-.71-.11-1a3.17,3.17,0,0,0-.13-6V20a2.49,2.49,0,0,0-2.49-2.49H8.67A2.49,2.49,0,0,0,6.18,20v1.45a3.16,3.16,0,0,0-.12,6,32.23,32.23,0,0,0-.18,7A22.74,22.74,0,0,0,8.06,42v2a2.48,2.48,0,0,0,2.49,2.49h14A2.49,2.49,0,0,0,27,44V42c.15-.31.44-.94.76-1.76h8.48c.32.82.61,1.45.76,1.76v2a2.49,2.49,0,0,0,2.5,2.49h14A2.48,2.48,0,0,0,55.94,44V42a22.74,22.74,0,0,0,2.18-7.52,33,33,0,0,0-.17-7,3.17,3.17,0,0,0-.13-6Zm-20.2-1.94H55.33a.48.48,0,0,1,.49.49v1.27H37.13V20A.48.48,0,0,1,37.62,19.51Zm12.71,8.13c.08,1.33.19,3.94.07,6.67a40.69,40.69,0,0,1-.81,6.42H43.36a41.65,41.65,0,0,1-.82-6.42c-.11-2.73,0-5.34.08-6.67Zm-9.78,6.75a42.9,42.9,0,0,0,.77,6.34H38.63a21,21,0,0,1-1.81-6.47A30.59,30.59,0,0,1,37,27.64h3.63C40.54,29,40.43,31.63,40.55,34.39ZM22.68,40.73a42.9,42.9,0,0,0,.77-6.34c.12-2.76,0-5.35-.07-6.75H27a30.56,30.56,0,0,1,.17,6.62,21,21,0,0,1-1.81,6.47Zm-8.27,0a41.93,41.93,0,0,1-.81-6.42c-.12-2.73,0-5.34.07-6.67h7.71c.08,1.33.19,3.94.08,6.67a41.65,41.65,0,0,1-.82,6.42ZM8.67,19.51H26.38a.48.48,0,0,1,.49.49v1.27H8.18V20A.48.48,0,0,1,8.67,19.51ZM7.18,23.27H27.87a1.19,1.19,0,0,1,0,2.37H7.18a1.19,1.19,0,0,1,0-2.37Zm.87,4.37h3.62c-.08,1.4-.19,4-.07,6.75a42.9,42.9,0,0,0,.77,6.34H9.68a21.25,21.25,0,0,1-1.81-6.47A31.11,31.11,0,0,1,8.05,27.64ZM25,44a.49.49,0,0,1-.5.49H10.55a.48.48,0,0,1-.49-.49V42.73H25Zm3.43-5.8a19.41,19.41,0,0,0,.74-3.76,27.68,27.68,0,0,0,.08-4h5.5a27.68,27.68,0,0,0,.08,4,19.41,19.41,0,0,0,.74,3.76ZM53.94,44a.48.48,0,0,1-.49.49h-14A.49.49,0,0,1,39,44V42.73H53.94Zm2.19-9.74a21.25,21.25,0,0,1-1.81,6.47H51.63a42.9,42.9,0,0,0,.77-6.34c.12-2.76,0-5.35-.07-6.75H56A31.11,31.11,0,0,1,56.13,34.26Zm.69-8.62H36.13a1.19,1.19,0,0,1,0-2.37H56.82a1.19,1.19,0,0,1,0,2.37Z"></path><circle cx="17.53" cy="30.33" r="1.25"></circle><circle cx="17.53" cy="38.03" r="1.25"></circle><circle cx="46.47" cy="30.33" r="1.25"></circle><circle cx="46.47" cy="38.03" r="1.25"></circle></svg>