<svg xmlns="http://www.w3.org/2000/svg" width="100" height="100" id="guitar"><g transform="matrix(.89591 0 0 .95295 5.204 -914.79)"><path fill="#e27c3e" d="M49.844 1003.018c-9.374 0-17 6.101-17 13.625 0 1.848.482 3.613 1.312 5.219a3.087 3.192 0 0 0 .875 1.625c1.723 1.765 1.848 4.527.313 6.469a3.087 3.192 0 0 0-.407.687c-3.798 3.077-6.156 7.295-6.156 11.969 0 9.405 9.502 17.031 21.219 17.031s21.219-7.626 21.219-17.031c0-5.157-2.863-9.783-7.375-12.906a5.07 5.07 0 0 1-.407-4.938c2.11-2.27 3.376-5.075 3.376-8.125 0-7.524-7.595-13.625-16.97-13.625z"></path><path fill="#3e6172" d="M46.137 981.051h7.725v38.252h-7.725z"></path><rect width="13.037" height="3.863" x="43.482" y="1034.709" fill="#3e6172" ry="1.931"></rect><path fill="#3e6172" d="M46.137 978.109h7.725v1.931h-7.725z"></path><rect width="9.657" height="13.881" x="45.172" y="965.2" fill="#3e6172" rx="4.182" ry="2.195"></rect><path fill="#af7653" stroke="#f5c363" stroke-width="1.931" d="M56.52 1023.741a6.518 6.518 0 1 1-13.035 0 6.518 6.518 0 0 1 13.036 0z"></path><path fill="#6ebec5" d="M44.699 970.085a1.158 1.158 0 01-.006-2.317l.006 1.159zM44.699 973.012a1.158 1.158 0 01-.006-2.317l.006 1.159zM44.699 975.877a1.158 1.158 0 01-.006-2.317l.006 1.159zM55.276 970.128a1.158 1.158 0 00.006-2.317l-.006 1.159zM55.276 973.055a1.158 1.158 0 00.006-2.317l-.006 1.159zM55.276 975.92a1.158 1.158 0 00.006-2.317l-.006 1.159z"></path><path fill="#8f9ba1" stroke="#ebeeee" stroke-width=".36" d="M48.556 968.927a.669.669 0 1 1-1.337 0 .669.669 0 0 1 1.337 0zM48.556 971.853a.669.669 0 1 1-1.337 0 .669.669 0 0 1 1.337 0zM48.556 974.719a.669.669 0 1 1-1.337 0 .669.669 0 0 1 1.337 0zM52.78 974.719a.669.669 0 1 1-1.336 0 .669.669 0 0 1 1.337 0zM52.78 971.896a.669.669 0 1 1-1.336 0 .669.669 0 0 1 1.337 0zM52.78 968.97a.669.669 0 1 1-1.336 0 .669.669 0 0 1 1.337 0z"></path><path fill="#fff" d="M47.351 980.771h.5v55.299h-.5zM48.55 980.771h.5v55.299h-.5zM49.75 980.771h.5v55.299h-.5zM50.95 980.771h.5v55.299h-.5zM52.149 980.771h.5v55.299h-.5z" opacity=".8"></path><rect width="7.01" height="2.077" x="46.495" y="1035.342" fill="#e9e9e9" ry="1.038"></rect><path fill="#f29f4a" d="M45.654 979.7h8.691v1.449h-8.691z"></path></g></svg>