<svg xmlns="http://www.w3.org/2000/svg" enable-background="new 0 0 64 64" viewBox="0 0 64 64" id="paty-guitar"><path fill="#ed09ed" d="M60.76 7.88l-4.64-4.64-2.69 2.69-5.23 5.24.24.24 4.16 4.16.25.25 5.09-5.08c.04-.05.08-.1.13-.15.02-.02.05-.04.07-.06l2.18-2.19L60.76 7.88zM16.12 42.04c-.78.78-1.21 1.81-1.21 2.92 0 1.11.42 2.14 1.21 2.93.78.78 1.83 1.22 2.93 1.22 1.1 0 2.14-.43 2.93-1.22.77-.78 1.21-1.81 1.21-2.93 0-1.1-.43-2.13-1.21-2.92-.61-.61-1.38-1.01-2.22-1.15-.24-.04-.47-.06-.71-.06C17.94 40.82 16.9 41.25 16.12 42.04zM29.28 31.98l-.05.05-.11.11-7.33 7.32c.59.29 1.12.68 1.6 1.15.47.47.86 1.01 1.14 1.59l7.34-7.34.08-.08.06-.06 18.47-18.46-2.74-2.74L29.28 31.98z"></path><path fill="#2d3f50" d="M32.42,37.15l-7.27,7.27c0.02,0.18,0.03,0.35,0.03,0.54c0,1.64-0.64,3.19-1.79,4.34
		c-1.17,1.17-2.7,1.8-4.34,1.8c-1.64,0-3.18-0.64-4.34-1.8c-1.15-1.15-1.79-2.7-1.79-4.34c0-1.64,0.64-3.18,1.79-4.33
		c1.17-1.17,2.7-1.8,4.34-1.8c0.19,0,0.37,0.01,0.55,0.03l7.25-7.26c-3.8-1.98-8.04-1.64-10.64,0.95c-0.36,0.37-0.7,0.79-1,1.26
		c-1.21,1.91-3.23,3.13-5.53,3.35c-2.6,0.24-4.89,1.28-6.61,3.01c-4.72,4.71-3.89,13.21,1.85,18.94c5.73,5.72,14.23,6.56,18.93,1.85
		c1.73-1.73,2.77-4.02,3.01-6.62c0.22-2.3,1.44-4.31,3.35-5.54c0.47-0.3,0.89-0.62,1.26-0.99C34.04,45.21,34.39,40.96,32.42,37.15z"></path><path fill="#ed09ed" d="M63.71 10.29l-1.27-1.27-1.42 1.42 1.27 1.27C62.49 11.91 62.74 12 63 12s.52-.09.71-.29C64.09 11.32 64.09 10.68 63.71 10.29zM53.56 2.98l1.42-1.42-1.27-1.27c-.39-.38-1.03-.38-1.42 0-.38.39-.38 1.03 0 1.42L53.56 2.98zM58.78 12.69l.98.98c.2.2.44.3.7.3s.52-.1.71-.3c.39-.39.39-1.02 0-1.41l-.98-.98L58.78 12.69zM51.31 5.23l1.41-1.41-.98-.98c-.38-.39-1.02-.39-1.41 0-.39.38-.39 1.02 0 1.41L51.31 5.23z"></path><path fill="#2d3f50" d="M11.92 9.77c.55 0 1-.45 1-1V6.63c0-.55-.45-1-1-1-.55 0-1 .45-1 1v2.14C10.92 9.32 11.37 9.77 11.92 9.77zM11.92 16.67c.55 0 1-.45 1-1v-1.77c0-.55-.45-1-1-1-.55 0-1 .45-1 1v1.77C10.92 16.22 11.37 16.67 11.92 16.67zM7.24 12.15h2.14c.55 0 1-.45 1-1 0-.55-.45-1-1-1H7.24c-.55 0-1 .45-1 1C6.24 11.7 6.69 12.15 7.24 12.15zM14.5 12.15h1.77c.55 0 1-.45 1-1 0-.55-.45-1-1-1H14.5c-.55 0-1 .45-1 1C13.5 11.7 13.95 12.15 14.5 12.15zM56.57 26.06c-.55 0-1 .45-1 1v2.14c0 .55.45 1 1 1 .55 0 1-.45 1-1v-2.14C57.57 26.5 57.13 26.06 56.57 26.06zM56.57 33.32c-.55 0-1 .45-1 1v1.77c0 .55.45 1 1 1 .55 0 1-.45 1-1v-1.77C57.57 33.77 57.13 33.32 56.57 33.32zM54.03 30.57h-2.14c-.55 0-1 .45-1 1 0 .55.45 1 1 1h2.14c.55 0 1-.45 1-1C55.03 31.02 54.58 30.57 54.03 30.57zM60.92 30.57h-1.77c-.55 0-1 .45-1 1 0 .55.45 1 1 1h1.77c.55 0 1-.45 1-1C61.92 31.02 61.48 30.57 60.92 30.57zM38.53 51.11c-.55 0-1 .45-1 1v2.14c0 .55.45 1 1 1 .55 0 1-.45 1-1v-2.14C39.53 51.56 39.08 51.11 38.53 51.11zM38.53 58.38c-.55 0-1 .45-1 1v1.77c0 .55.45 1 1 1 .55 0 1-.45 1-1v-1.77C39.53 58.82 39.08 58.38 38.53 58.38zM35.98 55.63h-2.14c-.55 0-1 .45-1 1 0 .55.45 1 1 1h2.14c.55 0 1-.45 1-1C36.98 56.08 36.54 55.63 35.98 55.63zM42.88 55.63h-1.77c-.55 0-1 .45-1 1 0 .55.45 1 1 1h1.77c.55 0 1-.45 1-1C43.88 56.08 43.43 55.63 42.88 55.63z"></path></svg>