<svg xmlns="http://www.w3.org/2000/svg" enable-background="new 0 0 48 48" viewBox="0 0 48 48" id="cymbals"><circle cx="24" cy="24" r="19" fill="#ffc107"></circle><circle cx="24" cy="24" r="18" fill="#ffd54f"></circle><path fill="#ffe07d" d="M41.044,29.815L24.022,24l5.815,17.022C35.094,39.226,39.247,35.072,41.044,29.815z"></path><path fill="#ffe79d" d="M7,18.185L24.022,24L18.207,6.978C12.949,8.775,8.796,12.928,7,18.185z"></path><path fill="#ffc107" d="M24,17c-3.866,0-7,3.134-7,7s3.134,7,7,7s7-3.134,7-7S27.866,17,24,17z"></path><path fill="#ffe082" d="M21.178,23.031l-1.891-0.651c0.508-1.475,1.647-2.606,3.127-3.103l0.637,1.896
	C22.165,21.47,21.482,22.148,21.178,23.031z"></path><circle cx="24" cy="24" r="2"></circle><path fill="#ff5722" d="M24,37c-2.206,0-4-1.794-4-4c0-1.65,0.744-3.008,1.464-4.322C22.22,27.301,23,25.876,23,24
	c0-0.552,0.447-1,1-1s1,0.448,1,1c0,1.862,0.779,3.287,1.533,4.665C27.254,29.984,28,31.348,28,33C28,35.206,26.206,37,24,37z
	 M24.003,28.135c-0.251,0.531-0.523,1.027-0.785,1.504C22.564,30.832,22,31.862,22,33c0,1.103,0.897,2,2,2s2-0.897,2-2
	c0-1.141-0.566-2.176-1.222-3.375C24.52,29.152,24.251,28.66,24.003,28.135z"></path></svg>