<svg xmlns="http://www.w3.org/2000/svg" enable-background="new 0 0 512 512" viewBox="0 0 512 512" id="drum"><ellipse cx="256" cy="424.7" fill="#6d6d6d" rx="255.5" ry="87.3"></ellipse><path fill="#ffce29" d="M498.5,172.8v240c0,62.2-180.2,78.9-242.5,78.9c-62.7,0-242.5-16.7-242.5-78.9v-240c0,62.2,180.2,78.9,242.5,78.9C318.2,251.7,498.5,235,498.5,172.8z"></path><path fill="#fff" d="M56.9,305.3l0-33.5c0-6-4.9-10.9-10.9-10.9l0,0c-6,0-10.9,4.9-10.9,10.9l0,33.5c0,6,4.9,10.9,10.9,10.9l0,0C52.1,316.2,56.9,311.3,56.9,305.3z" enable-background="new" opacity=".4"></path><path d="M467.9,212.2v240c18.7-10.5,30.6-23.4,30.6-39.4v-240C498.5,188.8,486.6,201.7,467.9,212.2z" enable-background="new" opacity=".08"></path><path fill="#13bd79" d="M117 237.5v240c-11.6-2.7-22.4-5.6-32.4-8.9v-240C94.5 231.8 105.3 234.8 117 237.5zM220.5 250.9v240c-11.1-.5-21.9-1.3-32.4-2.3v-240C198.6 249.6 209.4 250.4 220.5 250.9zM324 248.5v240c-10.5 1-21.3 1.8-32.4 2.3v-240C302.6 250.4 313.4 249.6 324 248.5zM427.5 228.6v240c-10 3.2-20.8 6.2-32.4 8.9v-240C406.7 234.8 417.5 231.8 427.5 228.6z"></path><ellipse cx="256" cy="172.8" fill="#6d6d6d" rx="255.5" ry="88.1"></ellipse><path fill="#f2f0f0" d="M256,235c-148.5,0-229.5-41.1-229.5-62.2s81-62.2,229.5-62.2c148.5,0,229.5,41.1,229.5,62.2S404.5,235,256,235z"></path><path d="M485.5,172.8c0,21.1-81,62.2-229.6,62.2c-6,0-12-0.1-17.7-0.2c137.2-3.1,211.8-41.7,211.8-62c0-20.2-74.6-58.9-211.8-62c5.8-0.2,11.7-0.2,17.7-0.2C404.5,110.6,485.5,151.7,485.5,172.8z" enable-background="new" opacity=".08"></path><path fill="#c17d61" d="M481.1 4.8c6.4 6.4 6.4 16.9 0 23.3L348.8 160.4c3.2 11.4.3 24.1-8.6 33-13.2 13.2-34.5 13.2-47.7 0-13.2-13.2-13.2-34.5 0-47.7 8.9-8.9 21.6-11.8 33-8.6L457.8 4.8C464.2-1.6 474.6-1.6 481.1 4.8zM30.9 4.8c-6.4 6.4-6.4 16.9 0 23.3l132.3 132.3c-3.2 11.4-.3 24.1 8.6 33 13.2 13.2 34.5 13.2 47.7 0 13.2-13.2 13.2-34.5 0-47.7-8.9-8.9-21.6-11.8-33-8.6L54.2 4.8C47.8-1.6 37.4-1.6 30.9 4.8z"></path></svg>