<svg xmlns="http://www.w3.org/2000/svg" viewBox="0 0 512 512" id="electric-guitar"><path fill="#57c5b9" d="M81.749,450.821,61.18,430.252c-34.48-34.48-25.624-92.509,17.571-115.135l18.055-9.458a64.632,64.632,0,0,0,22.607-19.689l29.3-41.022a70.552,70.552,0,0,1,49.62-29.114l6.142-.682a4.751,4.751,0,0,1,3.884,8.081h0A63.87,63.87,0,0,0,189.653,268.4h0a45.381,45.381,0,0,0,13.291,32.089L226.755,324.3a71.028,71.028,0,0,0,18.465,13.308h0a19.1,19.1,0,0,0,22.051-3.578h0a4.3,4.3,0,0,1,7.126,4.4l-4.043,12.129a54.684,54.684,0,0,1-27.421,31.617l-6.864,3.432a64.635,64.635,0,0,0-27.84,26.863l-11.918,21.85C173.2,476.685,115.87,484.942,81.749,450.821Z"></path><rect width="64" height="32" x="106.741" y="356.048" fill="#faefd0" rx="8" ry="8" transform="rotate(45 138.74 372.048)"></rect><rect width="64" height="24" x="69.971" y="396.818" fill="#faefd0" rx="8" ry="8" transform="rotate(45 101.972 408.818)"></rect><circle cx="161.368" cy="428.617" r="8" fill="#537dbd"></circle><path fill="#ccc" d="M178.2,354.935l-22.341-22.341A8,8,0,0,1,156,321.14L381.986,106.176,404.613,128.8,189.649,354.791A8,8,0,0,1,178.2,354.935Z"></path><polygon fill="#b3b3b3" points="208.81 334.64 203.3 340.44 170.35 307.49 176.15 301.98 208.81 334.64"></polygon><polygon fill="#b3b3b3" points="230.88 311.45 225.36 317.24 193.54 285.43 199.34 279.91 230.88 311.45"></polygon><polygon fill="#b3b3b3" points="252.94 288.26 247.42 294.05 216.74 263.37 222.53 257.85 252.94 288.26"></polygon><polygon fill="#b3b3b3" points="275 265.06 269.48 270.86 239.93 241.31 245.73 235.79 275 265.06"></polygon><polygon fill="#b3b3b3" points="297.06 241.87 291.55 247.67 263.12 219.24 268.92 213.73 297.06 241.87"></polygon><polygon fill="#b3b3b3" points="319.12 218.67 313.6 224.47 286.32 197.19 292.12 191.67 319.12 218.67"></polygon><polygon fill="#b3b3b3" points="341.18 195.48 335.67 201.28 309.51 175.12 315.31 169.61 341.18 195.48"></polygon><polygon fill="#b3b3b3" points="363.25 172.29 357.73 178.09 332.7 153.06 338.5 147.54 363.25 172.29"></polygon><path fill="#57c5b9" d="M398.956,134.46l-22.627-22.627a8,8,0,0,1,0-11.314l5.719-5.719a37.268,37.268,0,0,1,12.979-8.434L455.3,63.184a9.7,9.7,0,0,1,10.339,2.194h0a9.7,9.7,0,0,1,0,13.714L410.27,134.46A8,8,0,0,1,398.956,134.46Z"></path><path fill="#b3b3b3" d="M444.211 81.892a3.991 3.991 0 01-2.829-1.172l-16.97-16.971a4 4 0 015.657-5.656l16.971 16.97a4 4 0 01-2.829 6.829zM427.24 87.549a3.987 3.987 0 01-2.828-1.172L407.441 69.406A4 4 0 01413.1 63.75l16.97 16.971a4 4 0 01-2.829 6.828zM410.27 93.206a3.991 3.991 0 01-2.829-1.172l-16.97-16.971a4 4 0 115.657-5.656L413.1 86.378a4 4 0 01-2.829 6.828zM398.956 104.52a3.991 3.991 0 01-2.829-1.172l-16.97-16.971a4 4 0 015.657-5.656l16.971 16.97a4 4 0 01-2.829 6.829z"></path></svg>