<svg xmlns="http://www.w3.org/2000/svg" viewBox="0 0 64 64" id="harp"><rect width="2" height="41.11" x="25.5" y="9.95" fill="#e08f00" transform="rotate(-18.43 26.52 30.525)"></rect><rect width="2" height="34.93" x="31" y="9.54" fill="#e08f00" transform="rotate(-23.63 31.999 27.002)"></rect><rect width="2" height="29.46" x="36.67" y="10.06" fill="#e08f00" transform="rotate(-28.38 37.659 24.796)"></rect><rect width="2" height="12.51" x="44.87" y="20.33" fill="#e08f00" transform="rotate(-30.06 45.864 26.59)"></rect><path fill="#ffab00" d="M60.92,21.62a1,1,0,0,0-.86-.62l-7.17-.48A16.38,16.38,0,0,1,41,14.17,18.49,18.49,0,0,0,26.45,7H13a1,1,0,0,0-1,1.24l.75,3a1,1,0,0,0,1,.76h12.7A13.46,13.46,0,0,1,37,17.22a21.38,21.38,0,0,0,15.52,8.29l4.86.32h.07a1,1,0,0,0,.75-.34l2.51-2.84A1,1,0,0,0,60.92,21.62Z"></path><path fill="#e08f00" d="M59.07,23l-7.17-.48A16.38,16.38,0,0,1,40,16.17,18.49,18.49,0,0,0,25.45,9H12.22l.56,2.24a1,1,0,0,0,1,.76h12.7A13.46,13.46,0,0,1,37,17.22a21.38,21.38,0,0,0,15.52,8.29l4.86.32h.07a1,1,0,0,0,.75-.34l1.68-1.9A1,1,0,0,0,59.07,23Z"></path><path fill="#b76127" d="M28,55.76l-12-48A1,1,0,0,0,15,7H10A1,1,0,0,0,9,8.24l12,48A1,1,0,0,0,22,57h5a1,1,0,0,0,1-1.24Z"></path><path fill="#934714" d="M28,55.76l-12-48A1,1,0,0,0,15,7H12l12.7,50H27a1,1,0,0,0,1-1.24Z"></path><path fill="#602d0b" d="M18.89,3.55A1,1,0,0,0,18,3H7a1,1,0,0,0-.8,1.6l3,4A1,1,0,0,0,10,9h5a1,1,0,0,0,.8-.4l3-4A1,1,0,0,0,18.89,3.55Z"></path><path fill="#b76127" d="M60.65,21.24a1,1,0,0,0-1.36.06L25,56a1,1,0,0,0,.64,1.7L34,58.3H34a1,1,0,0,0,.81-.41l26-35.3A1,1,0,0,0,60.65,21.24Z"></path><path fill="#934714" d="M28.76,57.91,34,58.3H34a1,1,0,0,0,.81-.41l26-35.3a1,1,0,0,0-.11-1.3Z"></path><rect width="23" height="6" x="15" y="55" fill="#602d0b" rx="1" ry="1"></rect><path fill="#331602" d="M37 55H26v6H37a1 1 0 0 0 1-1V56A1 1 0 0 0 37 55zM18 3H12V9h3a1 1 0 0 0 .8-.4l3-4A1 1 0 0 0 18 3z"></path><path d="M60.65,21.24a.93.93,0,0,0-.58-.22v0l-7.17-.48A16.34,16.34,0,0,1,41,14.17,18.5,18.5,0,0,0,26.45,7H17l1.8-2.4a1,1,0,0,0,.09-1A1,1,0,0,0,18,3H7a1,1,0,0,0-.89.55,1,1,0,0,0,.09,1L9.08,8.44,20.72,55H16a1,1,0,0,0-1,1v4a1,1,0,0,0,1,1H37a1,1,0,0,0,1-1V56a1,1,0,0,0-1-1h0L60.81,22.59A1,1,0,0,0,60.65,21.24ZM9,5h7L14.5,7h-4Zm2.28,4h2.94l11.5,46H22.78ZM36,59H17V57H36Zm-1.47-4-5.31-.45L51.11,32.4ZM49.62,31.07v0l-1.4,1.41.07,0-3.47,3.5v0l-1.47,1.48v0l-4,4v0L37.87,42.9v0L33.25,47.6v0l-1.57,1.59v0L27.41,53.5v0l0,0L17,12h9.41l.3,0c.33,0,.65,0,1,.06l.45,0c.35,0,.7.11,1,.19l.55.13.13,0h0a13.5,13.5,0,0,1,2.91,1.17v0l.44.27c.2.12.4.23.59.36s.62.43.92.66l.19.14A12.62,12.62,0,0,1,37,17.22,21.56,21.56,0,0,0,42,21.87l0,0a21.4,21.4,0,0,0,3.39,1.86v0a21.46,21.46,0,0,0,5.27,1.56l.12,0c.59.09,1.19.16,1.79.2l2.4.16Zm7.2-7.28-4.12-.27A19.38,19.38,0,0,1,38.63,16a15.45,15.45,0,0,0-12.18-6H16.53l-.25-1H26.45a16.46,16.46,0,0,1,13,6.39,18.39,18.39,0,0,0,13.34,7.13l5,.33Z"></path></svg>