<svg xmlns="http://www.w3.org/2000/svg" data-name="Artboard 30" viewBox="0 0 64 64" id="harp"><rect width="2" height="45.183" x="31" y="12" fill="#e2e7f7"></rect><rect width="2" height="44.704" x="35" y="12" fill="#e2e7f7"></rect><rect width="2" height="44" x="39" y="12" fill="#e2e7f7"></rect><rect width="2" height="44.001" x="23" y="12" fill="#e2e7f7"></rect><rect width="2" height="44.705" x="27" y="12" fill="#e2e7f7"></rect><polygon fill="#aaadb9" points="19 20 46 20 45.717 17 19.283 17 19 20"></polygon><path fill="#a66a43" d="M31.992,62c25.154-1.612,30.213-10.059,30-20.062-.168-7.9-12.012-17.5-12-29.087,0-1.654.119-4.27,2-5.83a3.471,3.471,0,0,1,2.942-.963c3.286.785,4.137,3.779,1.491,5h0c-1.148.763.234,2.605,1.572,2.935,2.294.277,5.724-4.657,2.995-8.989-2.225-3.531-8.968-3.975-13-1-5.438,4.012-5.876,13.219-4,19,3.5,10.788,8.292,13.59,8,19-.222,4.117-1.48,9.184-20,11H32c-18.52-1.816-19.778-6.883-20-11-.292-5.41,4.5-8.212,8-19,1.877-5.781,1.438-14.988-4-19C11.968,1.025,5.225,1.469,3,5c-2.729,4.332.7,9.266,3,8.989,1.338-.33,2.72-2.172,1.572-2.935h0c-2.645-1.217-1.795-4.211,1.491-5A3.47,3.47,0,0,1,12,7.021c1.881,1.56,2,4.176,2,5.83C14.012,24.437,2.168,34.04,2,41.938c-.213,10,4.846,18.45,30,20.062Z"></path><path fill="#bc7751" d="M56.425 11.054c-1.148.763.234 2.605 1.572 2.935 2.294.277 5.724-4.657 2.995-8.989-2.225-3.531-8.968-3.975-13-1-5.438 4.012-5.876 13.219-4 19 3.5 10.788 8.292 13.59 8 19a8.089 8.089 0 01-1.522 4.783 46.77 46.77 0 0011.466-2.559c.053-.752.073-1.513.056-2.286-.168-7.9-12.012-17.5-12-29.087 0-1.654.119-4.27 2-5.83a3.471 3.471 0 012.942-.963C58.22 6.843 59.071 9.837 56.425 11.054zM14.412 34.8A54.211 54.211 0 0020 23c1.877-5.781 1.438-14.988-4-19C11.968 1.025 5.225 1.469 3 5c-2.729 4.332.7 9.266 3 8.989 1.338-.33 2.72-2.172 1.572-2.935-2.645-1.217-1.795-4.211 1.491-5A3.47 3.47 0 0112 7.021c1.881 1.56 2 4.176 2 5.83.006 5.57-2.729 10.68-5.589 15.364A47.276 47.276 0 0014.412 34.8z"></path></svg>