<svg xmlns="http://www.w3.org/2000/svg" enable-background="new 0 0 512 512" viewBox="0 0 512 512" id="maracas"><path fill="#c17d61" d="M298.267,461.416c25.926,32.27,50.968,33.816,64.849,22.664c13.848-11.126,17.767-35.939-8.158-68.208c-12.741-15.858-56.039-57.863-96.784-96.423l-33.21,26.68C253.839,394.225,285.527,445.557,298.267,461.416z"></path><path d="M298.246,461.418c25.948,32.241,51.007,33.817,64.887,22.661c1.629-1.287,3.099-2.766,4.412-4.437c-14.431,7.416-36.961,3.166-60.165-25.742c-12.765-15.835-44.359-67.084-73.255-115.122l-9.175,7.337C253.841,394.211,285.512,445.557,298.246,461.418z" opacity=".08"></path><path fill="#5b5b5b" d="M202.473,334.698l49.379-39.67c4.952-3.978,12.19-3.189,16.168,1.763s3.189,12.19-1.763,16.168l-49.379,39.67c-4.951,3.978-12.19,3.189-16.168-1.763S197.522,338.676,202.473,334.698z"></path><path fill="#ffce29" d="M2.644,194.386c-6.577-34.638,2.708-72.278,30.843-100.275l19.888-15.94c36.797-23.655,81.676-23.076,117.794-1.87L7.198,211.268C5.276,205.758,3.721,200.123,2.644,194.386z"></path><path fill="#e5e3e5" d="M231.963,236.746l-0.16,0.132c4.009,22.505,10.904,42.312,21.527,58.352l-50.944,40.911c-13.372-13.83-31.238-24.822-52.326-33.592l-0.16,0.132c-4.78-1.995-9.736-3.861-14.828-5.63l94.404-77.706C230.14,225.29,230.95,231.107,231.963,236.746z"></path><path fill="#13bd79" d="M81.187,282.361c-10.408-3.17-19.888-7.627-28.421-13.083L219.3,132.202c4.026,10.213,6.685,21.273,7.595,33.074c0.305,3.243,0.396,6.555,0.392,9.946c-0.048,15.422,0.626,30.168,2.188,44.123l-94.404,77.706c-13.749-4.773-28.578-8.77-44.279-12.166C87.501,284.153,84.28,283.31,81.187,282.361z"></path><path fill="#f96464" d="M28.92,248.775c-1.034-1.191-2.01-2.377-2.987-3.563c-8.231-10.223-14.48-21.746-18.735-33.944L171.169,76.3c13.217,7.76,24.938,18.154,34.221,30.714c5.633,7.614,10.314,16.065,13.91,25.188L52.766,269.278C43.71,263.489,35.724,256.571,28.92,248.775z"></path><path d="M25.933,245.212c0.976,1.186,1.952,2.371,2.987,3.563c6.793,7.795,14.792,14.705,23.845,20.478c8.55,5.489,18.025,9.947,28.422,13.108c3.093,0.948,6.314,1.792,9.605,2.524c15.71,3.412,30.541,7.386,44.26,12.168c5.108,1.763,10.087,3.632,14.847,5.627l0.16-0.132c21.088,8.77,38.953,19.762,52.326,33.592l50.944-40.911c-0.079-0.096-0.126-0.219-0.205-0.315l-25.806,20.703c-13.341-13.856-31.238-24.822-52.294-33.618l-0.16,0.132c-4.792-1.969-9.739-3.865-14.878-5.601c-13.687-4.808-28.55-8.756-44.228-12.194c-3.291-0.732-6.511-1.575-9.637-2.497c-10.397-3.161-19.841-7.646-28.391-13.134c-9.053-5.773-17.052-12.683-23.845-20.478c-1.034-1.192-2.01-2.378-2.986-3.564c-8.24-10.205-14.495-21.723-18.768-33.904c-1.912-5.523-3.456-11.187-4.553-16.896c-6.272-33.222,1.992-69.163,27.43-96.714c-0.533,0.331-1.067,0.663-1.632,1.021L33.487,94.11C5.352,122.107-3.932,159.748,2.644,194.386c1.066,5.736,2.642,11.373,4.553,16.896C11.471,223.462,17.694,235.006,25.933,245.212z" opacity=".08"></path><path fill="#fff" d="M168.917,113.575l12.108,14.71c2.892,3.513,8.084,4.017,11.598,1.125v0c3.513-2.892,4.017-8.084,1.125-11.598l-12.108-14.71c-2.892-3.513-8.084-4.017-11.598-1.125l0,0C166.529,104.869,166.025,110.062,168.917,113.575z" opacity=".4"></path><path fill="#c17d61" d="M213.733,422.656c-25.926,32.27-50.968,33.815-64.849,22.664c-13.848-11.126-17.767-35.939,8.158-68.208c12.741-15.858,56.039-57.863,96.784-96.423l33.21,26.68C258.161,355.466,226.473,406.798,213.733,422.656z"></path><path d="M213.754,422.659c-25.948,32.241-51.007,33.817-64.887,22.661c-1.629-1.287-3.099-2.766-4.412-4.437c14.431,7.416,36.961,3.166,60.165-25.742c12.765-15.835,44.359-67.084,73.255-115.122l9.175,7.337C258.159,355.452,226.488,406.797,213.754,422.659z" opacity=".08"></path><path fill="#5b5b5b" d="M309.527,295.939l-49.379-39.67c-4.952-3.978-12.19-3.189-16.168,1.763c-3.978,4.952-3.189,12.19,1.763,16.168l49.379,39.67c4.951,3.978,12.19,3.189,16.168-1.763C315.268,307.155,314.478,299.916,309.527,295.939z"></path><path fill="#ffce29" d="M509.356,155.626c6.577-34.638-2.708-72.278-30.843-100.275l-19.888-15.94c-33.4-21.471-72.149-22.4-104.569-8.55c-4.545,1.938-8.961,4.176-13.225,6.68l163.971,134.968C506.724,166.999,508.279,161.364,509.356,155.626z"></path><path fill="#e5e3e5" d="M280.037,197.986l0.16,0.132c-4.009,22.505-10.904,42.312-21.527,58.352l50.944,40.911c13.372-13.83,31.238-24.822,52.326-33.592l0.16,0.132c4.78-1.994,9.736-3.861,14.828-5.63l-94.404-77.706C281.86,186.531,281.05,192.347,280.037,197.986z"></path><path fill="#13bd79" d="M430.813,243.602c10.408-3.17,19.888-7.627,28.421-13.083L292.7,93.442c-4.026,10.213-6.685,21.273-7.595,33.074c-0.305,3.243-0.396,6.555-0.392,9.946c0.048,15.422-0.626,30.168-2.188,44.123l94.404,77.706c13.749-4.773,28.578-8.77,44.279-12.166C424.499,245.394,427.72,244.551,430.813,243.602z"></path><path fill="#f96464" d="M483.08,210.016c1.035-1.191,2.01-2.377,2.987-3.563c8.231-10.223,14.48-21.746,18.735-33.944L340.831,37.541c-13.217,7.76-24.938,18.154-34.221,30.714c-5.634,7.614-10.314,16.065-13.91,25.188l166.533,137.077C468.29,224.73,476.276,217.812,483.08,210.016z"></path><path d="M486.067,206.453c-0.976,1.186-1.952,2.371-2.987,3.563c-6.793,7.795-14.792,14.705-23.845,20.478c-8.55,5.489-18.025,9.947-28.422,13.108c-3.093,0.948-6.314,1.792-9.605,2.524c-15.71,3.412-30.541,7.386-44.26,12.168c-5.108,1.763-10.087,3.632-14.847,5.627l-0.16-0.132c-21.088,8.77-38.953,19.762-52.326,33.592l-50.944-40.911c0.079-0.096,0.126-0.219,0.205-0.315l25.806,20.703c13.341-13.856,31.238-24.822,52.294-33.618l0.16,0.132c4.792-1.969,9.739-3.865,14.878-5.601c13.687-4.808,28.55-8.756,44.228-12.194c3.291-0.732,6.511-1.575,9.637-2.497c10.397-3.162,19.841-7.646,28.391-13.134c9.053-5.773,17.052-12.683,23.845-20.478c1.034-1.192,2.01-2.378,2.986-3.564c8.24-10.205,14.495-21.723,18.768-33.904c1.912-5.523,3.456-11.187,4.553-16.896c6.272-33.222-1.992-69.163-27.43-96.714c0.533,0.331,1.067,0.663,1.632,1.021l19.888,15.94c28.135,27.997,37.419,65.637,30.843,100.275c-1.066,5.736-2.642,11.373-4.553,16.896C500.529,184.703,494.306,196.247,486.067,206.453z" opacity=".08"></path><path fill="#fff" d="M343.083,74.816l-12.108,14.71c-2.892,3.513-8.084,4.017-11.598,1.125l0,0c-3.513-2.892-4.017-8.084-1.125-11.598l12.108-14.71c2.892-3.513,8.084-4.017,11.598-1.125v0C345.471,66.11,345.975,71.302,343.083,74.816z" opacity=".4"></path></svg>