<svg xmlns="http://www.w3.org/2000/svg" data-name="Layer 3" viewBox="0 0 64 64" id="piano"><rect width="1.999" height="18.322" x="49.006" y="9.358" fill="#383838" transform="rotate(-17.51 50.034 18.523)"></rect><rect width="60" height="16" x="2" y="26" fill="#4c4c4c"></rect><polyline fill="#fff" points="6 42 6 38 58 38 58 42"></polyline><rect width="2" height="4" x="9" y="38" fill="#4c4c4c"></rect><rect width="2" height="4" x="13" y="38" fill="#4c4c4c"></rect><rect width="2" height="4" x="17" y="38" fill="#4c4c4c"></rect><rect width="2" height="4" x="21" y="38" fill="#4c4c4c"></rect><rect width="2" height="4" x="25" y="38" fill="#4c4c4c"></rect><rect width="2" height="4" x="29" y="38" fill="#4c4c4c"></rect><rect width="2" height="4" x="33" y="38" fill="#4c4c4c"></rect><rect width="2" height="4" x="37" y="38" fill="#4c4c4c"></rect><rect width="2" height="4" x="41" y="38" fill="#4c4c4c"></rect><rect width="2" height="4" x="45" y="38" fill="#4c4c4c"></rect><rect width="2" height="4" x="49" y="38" fill="#4c4c4c"></rect><rect width="2" height="4" x="53" y="38" fill="#4c4c4c"></rect><rect width="60" height="6" x="2" y="26" fill="#212121"></rect><path fill="#383838" d="M26,32V24h0a2,2,0,0,1,2-2h8a2,2,0,0,1,2,2v8"></path><path fill="#4c4c4c" d="M38,24a2,2,0,0,0-2-2H28a1.99,1.99,0,0,0-.82.18A1.99,1.99,0,0,0,27,23a8,8,0,0,0,8,8h3Z"></path><rect width="2" height="10" x="31" y="22" fill="#383838"></rect><polyline fill="#383838" points="12.6 26 54 8 52 4 2 26"></polyline><polygon fill="#4c4c4c" points="6.545 24 17.2 24 54 8 52 4 6.545 24"></polygon><polyline fill="#383838" points="3 42 4 60 8 60 9 42"></polyline><polyline fill="#383838" points="55 42 56 60 60 60 61 42"></polyline><rect width="2" height="14" x="38" y="42" fill="#383838"></rect><rect width="2" height="14" x="24" y="42" fill="#383838"></rect><rect width="16" height="4" x="24" y="56" fill="#606060"></rect><polygon fill="#4c4c4c" points="60 60 60.944 43 55.056 43 56 60 60 60"></polygon><polygon fill="#4c4c4c" points="8 60 8.944 43 3.056 43 4 60 8 60"></polygon><rect width="4" height="4" x="28" y="56" fill="#383838"></rect><rect width="4" height="4" x="36" y="56" fill="#383838"></rect><path d="M62,25H53.1L48.792,11.355,54.4,8.917a1,1,0,0,0,.5-1.364l-2-4a1,1,0,0,0-1.3-.468l-50,22h0A1,1,0,0,0,1,26V42a1,1,0,0,0,1,1h.054L3,60.056A1,1,0,0,0,4,61H8a1,1,0,0,0,1-.944L9.946,43H23V60a1,1,0,0,0,1,1H40a1,1,0,0,0,1-1V43H54.054L55,60.056A1,1,0,0,0,56,61h4a1,1,0,0,0,1-.944L61.946,43H62a1,1,0,0,0,1-1V26A1,1,0,0,0,62,25Zm-1,6H39V27H61ZM59,41V38a1,1,0,0,0-1-1H6a1,1,0,0,0-1,1v3H3V33H61v8ZM7,41V39H9v2Zm4-2h2v2H11Zm4,0h2v2H15Zm4,0h2v2H19Zm4,0h2v2H23Zm4,0h2v2H27Zm4,0h2v2H31Zm4,0h2v2H35Zm4,0h2v2H39Zm4,0h2v2H43Zm4,0h2v2H47Zm4,0h2v2H51Zm4,2V39h2v2ZM25,27v4H3V27Zm12,4H33V23h3a1,1,0,0,1,1,1Zm-6,0H27V24a1,1,0,0,1,1-1h3Zm20-6H39V24a3,3,0,0,0-3-3H28a3,3,0,0,0-3,3v1H17.407L46.948,12.156Zm1.63-17.5L12.392,25H6.755L51.531,5.3ZM7.054,59H4.946L4.057,43H7.943ZM25,57h2v2H25Zm10,0v2H33V57Zm-4,2H29V57h2Zm6,0V57h2v2Zm2-4H25V43H39Zm20.054,4H56.946l-.889-16h3.886Z"></path></svg>