<svg xmlns="http://www.w3.org/2000/svg" fill-rule="evenodd" stroke-linejoin="round" stroke-miterlimit="2" clip-rule="evenodd" viewBox="0 0 96 96" id="piano"><path fill="none" d="M0 0h96v96H0z"></path><path fill="#333" d="M94 55.512A11.593 11.593 0 0 0 82.408 43.92H68.003c-14.053 0-25.873-10.536-27.483-24.497v-.003c-1.023-8.878-8.541-15.579-17.478-15.579h-1.798A19.244 19.244 0 0 0 2 23.085V86.11a6.046 6.046 0 0 0 6.05 6.049h79.9A6.047 6.047 0 0 0 94 86.11V55.512Z"></path><path fill-opacity=".15" d="M2 81.123v4.987a6.046 6.046 0 0 0 6.05 6.049h79.9A6.047 6.047 0 0 0 94 86.11v-4.987a6.046 6.046 0 0 1-6.05 6.049H8.05A6.047 6.047 0 0 1 2 81.123Z"></path><path fill-opacity=".15" d="M6.097 11.214a19.244 19.244 0 0 1 11.87-4.097h1.799c8.937 0 16.455 6.701 17.478 15.58v.002c1.609 13.961 13.43 24.497 27.483 24.497h14.405a11.593 11.593 0 0 1 11.592 11.592v30.598c0 .801-.159 1.586-.46 2.313A6.046 6.046 0 0 0 94 86.11V55.512A11.593 11.593 0 0 0 82.408 43.92H68.003c-14.053 0-25.873-10.536-27.483-24.497v-.003c-1.023-8.878-8.541-15.579-17.478-15.579h-1.798a19.244 19.244 0 0 0-15.147 7.373Z"></path><path fill="#ebebeb" d="M86.06 77.325a2.425 2.425 0 0 0-2.425-2.424H12.396a2.424 2.424 0 0 0-2.424 2.424v14.834H86.06V77.325Z"></path><path fill="#0d28f2" fill-opacity=".15" d="M9.972 79.594H86.06v-2.269a2.425 2.425 0 0 0-2.425-2.424H12.396a2.424 2.424 0 0 0-2.424 2.424v2.269Z"></path><path fill="#caceec" d="M18.383 92.159h3v-5.954a1.5 1.5 0 0 0-3 0v5.954Zm13.314 0v-5.954a1.5 1.5 0 0 0-3 0v5.954h3Zm7.314 0h3v-5.954a1.501 1.501 0 0 0-3 0v5.954Zm13.313 0v-5.954a1.5 1.5 0 0 0-3 0v5.954h3Zm10.314 0v-5.954a1.5 1.5 0 0 0-3 0v5.954h3Zm7.112 0h3v-5.954a1.5 1.5 0 0 0-3 0v5.954Zm8.092 0h3V80.223a1.501 1.501 0 0 0-3 0v11.936Z"></path><path fill="#333" d="M22.307 74.901h-4.848v9.688c0 .892.723 1.616 1.616 1.616h1.616c.892 0 1.616-.724 1.616-1.616v-9.688zm30.942 0H48.4v9.688c0 .892.724 1.616 1.616 1.616h1.616c.893 0 1.617-.724 1.617-1.616v-9.688zm10.313 0h-4.848v9.688c0 .892.724 1.616 1.616 1.616h1.616c.893 0 1.616-.724 1.616-1.616v-9.688zm10.112 0h-4.849v9.688c0 .892.724 1.616 1.617 1.616h1.616c.892 0 1.616-.724 1.616-1.616v-9.688zm-41.053 0h-4.849v9.688c0 .892.724 1.616 1.617 1.616h1.616c.892 0 1.616-.724 1.616-1.616v-9.688zm10.314 0h-4.849v9.688c0 .892.724 1.616 1.616 1.616h1.617c.892 0 1.616-.724 1.616-1.616v-9.688z"></path><path fill-opacity=".15" d="M2 59.268h92v3H2z"></path><path fill="#e831f4" d="M58.94 13.927h-2.242a5.32 5.32 0 0 0-5.317 5.317v1.742a3.503 3.503 0 0 0 3.5 3.5h1.742a5.318 5.318 0 0 0 5.317-5.236V9.959l1.998 1.998a1.5 1.5 0 1 0 2.121-2.121l-4.558-4.559a1.5 1.5 0 0 0-2.561 1.061v7.589Z"></path><circle cx="55.366" cy="17.817" r="1.909" fill="#fff" fill-opacity=".25"></circle><path fill="#e831f4" d="M80.259 26.546h-2.242a5.318 5.318 0 0 0-5.318 5.317v1.742a3.503 3.503 0 0 0 3.5 3.5h1.742a5.315 5.315 0 0 0 5.317-5.236l.001-.044v-9.247l1.997 1.998a1.502 1.502 0 0 0 2.122 0 1.502 1.502 0 0 0 0-2.122l-4.559-4.558a1.5 1.5 0 0 0-2.56 1.061v7.589Z"></path><circle cx="76.924" cy="30.228" r="1.909" fill="#fff" fill-opacity=".25"></circle><path d="M95.5 55.512A13.092 13.092 0 0 0 82.408 42.42H68.003c-13.291 0-24.471-9.965-25.992-23.169l-.001-.002C40.9 9.613 32.741 2.341 23.042 2.341h-1.798A20.74 20.74 0 0 0 6.576 8.417 20.74 20.74 0 0 0 .5 23.085V86.11a7.549 7.549 0 0 0 7.55 7.549h79.9a7.55 7.55 0 0 0 7.55-7.549V55.512Zm-3 0V86.11a4.55 4.55 0 0 1-4.55 4.549H8.05A4.549 4.549 0 0 1 3.5 86.11V23.085A17.743 17.743 0 0 1 21.244 5.341h1.798c8.175 0 15.052 6.129 15.988 14.251v.003C40.727 34.312 53.188 45.42 68.003 45.42h14.405A10.092 10.092 0 0 1 92.5 55.512Z"></path><path d="M8.472 77.325v14.834a1.5 1.5 0 0 0 3 0V77.325a1.5 1.5 0 0 0-3 0ZM87.56 92.159V77.325a3.924 3.924 0 0 0-3.925-3.924H14.401a1.5 1.5 0 0 0 0 3h69.234c.511 0 .925.414.925.924v14.834a1.5 1.5 0 0 0 3 0Z"></path><path d="M15.959 79.706v4.883a3.116 3.116 0 0 0 3.116 3.116h1.616a3.116 3.116 0 0 0 3.116-3.116v-9.688a1.5 1.5 0 0 0-3 0v9.688a.116.116 0 0 1-.116.116h-1.616a.116.116 0 0 1-.116-.116v-4.883a1.501 1.501 0 0 0-3 0zm30.941 0v4.883a3.116 3.116 0 0 0 3.116 3.116h1.616a3.117 3.117 0 0 0 3.117-3.116v-9.688a1.501 1.501 0 0 0-3 0v9.688a.116.116 0 0 1-.117.116h-1.616a.116.116 0 0 1-.116-.116v-4.883a1.501 1.501 0 0 0-3 0zm10.314 0v4.883a3.116 3.116 0 0 0 3.116 3.116h1.616a3.116 3.116 0 0 0 3.116-3.116v-9.688a1.5 1.5 0 0 0-3 0v9.688a.116.116 0 0 1-.116.116H60.33a.116.116 0 0 1-.116-.116v-4.883a1.501 1.501 0 0 0-3 0zm10.111 0v4.883a3.117 3.117 0 0 0 3.117 3.116h1.616a3.116 3.116 0 0 0 3.116-3.116v-9.688a1.5 1.5 0 0 0-3 0v9.688a.116.116 0 0 1-.116.116h-1.616a.116.116 0 0 1-.117-.116v-4.883a1.501 1.501 0 0 0-3 0zm-41.053 0v4.883a3.117 3.117 0 0 0 3.117 3.116h1.616a3.116 3.116 0 0 0 3.116-3.116v-9.688a1.5 1.5 0 0 0-3 0v9.688a.116.116 0 0 1-.116.116h-1.616a.116.116 0 0 1-.117-.116v-4.883a1.501 1.501 0 0 0-3 0zm10.314-.15v5.033a3.116 3.116 0 0 0 3.116 3.116h1.617a3.116 3.116 0 0 0 3.116-3.116v-9.688a1.5 1.5 0 0 0-3 0v9.688a.116.116 0 0 1-.116.116h-1.617a.116.116 0 0 1-.116-.116v-5.033a1.5 1.5 0 0 0-3 0z"></path><path d="M18.383 86.205v5.954a1.5 1.5 0 0 0 3 0v-5.954a1.5 1.5 0 0 0-3 0zm10.314 0v5.954a1.5 1.5 0 0 0 3 0v-5.954a1.5 1.5 0 0 0-3 0zm10.314 0v5.954a1.5 1.5 0 0 0 3 0v-5.954a1.501 1.501 0 0 0-3 0zm10.313 0v5.954a1.5 1.5 0 0 0 3 0v-5.954a1.5 1.5 0 0 0-3 0zm10.314 0v5.954a1.5 1.5 0 0 0 3 0v-5.954a1.5 1.5 0 0 0-3 0zm10.112 0v5.954a1.5 1.5 0 0 0 3 0v-5.954a1.5 1.5 0 0 0-3 0zm8.092-5.982v11.936a1.5 1.5 0 0 0 3 0V80.223a1.501 1.501 0 0 0-3 0zM7.579 62.268h73.382a1.5 1.5 0 0 0 0-3H7.579a1.5 1.5 0 0 0 0 3zm79.564 0h5.541a1.5 1.5 0 0 0 0-3h-5.541a1.5 1.5 0 0 0 0 3zM61.895 15.396a1.5 1.5 0 0 0-1.5-1.5h-3.742a5.316 5.316 0 0 0-5.318 5.317v1.742a3.5 3.5 0 0 0 3.5 3.5h1.742a5.318 5.318 0 0 0 5.318-5.317v-3.742zm-3 1.5v2.242a2.32 2.32 0 0 1-2.318 2.317h-1.742a.499.499 0 0 1-.5-.5v-1.742a2.314 2.314 0 0 1 2.318-2.317h2.242z"></path><path d="M61.895 19.176V9.928l1.997 1.998a1.5 1.5 0 0 0 2.122-2.121l-4.559-4.559a1.5 1.5 0 0 0-2.56 1.061v12.869a1.5 1.5 0 0 0 3 0zm21.382 8.818a1.5 1.5 0 0 0-1.5-1.5h-3.742a5.317 5.317 0 0 0-5.318 5.318v1.741a3.5 3.5 0 0 0 3.5 3.5h1.742a5.318 5.318 0 0 0 5.318-5.317v-3.742zm-3 1.5v2.242a2.32 2.32 0 0 1-2.318 2.317h-1.742a.499.499 0 0 1-.5-.5v-1.741a2.317 2.317 0 0 1 2.318-2.318h2.242z"></path><path d="M83.277 31.774v-9.247l1.997 1.997a1.5 1.5 0 0 0 2.122-2.121l-4.559-4.558a1.5 1.5 0 0 0-2.56 1.06v12.869a1.5 1.5 0 0 0 3 0Z"></path></svg>