<svg xmlns="http://www.w3.org/2000/svg" enable-background="new 0 0 47.5 47.5" viewBox="0 0 47.5 47.5" id="saxophone"><defs><clipPath id="a"><path d="M0 38h38V0H0v38Z"></path></clipPath></defs><g clip-path="url(#a)" transform="matrix(1.25 0 0 -1.25 0 47.5)"><path fill="#fcab40" fill-rule="evenodd" d="m0 0-5-10s-1-2 1-2c1 0 2 2 2 2L12 9s2 4 8 1V8c-3 1-4-1-4-1L1-17s-2-3-7-3c-6 0-7 5-7 8 0 2 1 4 2 6s-2 6-2 6H0Z" transform="translate(15 21)"></path><path fill="#fdcb58" d="M0 0c-3.46 0-7.5 1.048-7.5 4 0 2.953 4.04 4 7.5 4s7.5-1.047 7.5-4c0-2.952-4.04-4-7.5-4" transform="translate(8.5 17)"></path><path fill="#ccd6dd" d="M0 0a2 2 0 1 0-4.001.001A2 2 0 0 0 0 0" transform="translate(22 20)"></path><path fill="#ccd6dd" d="M0 0a2 2 0 1 0-4.001.001A2 2 0 0 0 0 0" transform="translate(25 24)"></path><path fill="#ccd6dd" d="M0 0a2 2 0 1 0-4.001.001A2 2 0 0 0 0 0" transform="translate(28 28)"></path><path fill="#9aaab4" d="M0 0c-.3 0-.605.068-.893.211l-2 1A2 2 0 0 0-1.104 4.79l2-1A2 2 0 0 0 0 0" transform="translate(34.998 27)"></path><path fill="#fcab40" fill-rule="evenodd" d="m0 0-1.268-1.548-6.19 5.068 1.266 1.547L0 0Z" transform="translate(17.265 11.775)"></path></g></svg>