<svg xmlns="http://www.w3.org/2000/svg" fill-rule="evenodd" stroke-linejoin="round" stroke-miterlimit="2" clip-rule="evenodd" viewBox="0 0 96 96" id="saxophone"><path fill="none" d="M0 0h96v96H0z"></path><path fill="#e831f4" d="M71.646 42.114h-2.242a5.318 5.318 0 0 0-5.317 5.317v1.742a3.497 3.497 0 0 0 3.5 3.5h1.741a5.316 5.316 0 0 0 5.317-5.236l.001-.044v-9.247l1.998 1.998a1.501 1.501 0 0 0 2.121 0 1.501 1.501 0 0 0 0-2.121l-4.558-4.559a1.5 1.5 0 0 0-2.561 1.061v7.589Z"></path><circle cx="68.429" cy="46.039" r="1.687" fill="#fff" fill-opacity=".25"></circle><path fill="#e831f4" d="M24.778 25.466h-2.242a5.32 5.32 0 0 0-5.317 5.317v1.742a3.503 3.503 0 0 0 3.5 3.5h1.742a5.315 5.315 0 0 0 5.317-5.236v-9.291l1.998 1.998a1.501 1.501 0 0 0 2.121-2.122l-4.558-4.558a1.5 1.5 0 0 0-2.561 1.061v7.589Z"></path><circle cx="21.071" cy="29.39" r="1.687" fill="#fff" fill-opacity=".25"></circle><path fill="#f3b725" d="M19.457 72.761c-1.939 3.567-3.449 8.154-2.212 12.021 1.237 3.867 3.592 6.947 9.141 8.642.001 0 11.349 3.665 16.382-7.492C47.985 74.368 56.95 72.954 56.95 72.954c-5.024-3.814-7.889-8.978-7.917-15.913-4.219 2.502-9.749 6.146-17.188 20.92-.226.449-.88.474-1.305.206a1.003 1.003 0 0 1-.376-1.266c5.105-11.144 18.424-39.6 23.954-51.654 2.742-5.977-.343-12.116-5.698-15.933-1.914-1.365-9.213-5.361-12.409-7.096a1.77 1.77 0 0 0-2.38.66 1.792 1.792 0 0 0 .733 2.502c1.885.966 4.984 2.662 7.5 4.533 2.462 1.831 4.576 4.046 5.057 6.537.52 2.691.126 5.549-1.25 8.08L19.457 72.761Z"></path><path fill="#f20d0d" fill-opacity=".15" d="M52.823 68.878c-.674.123-9.132 1.872-14.139 12.97-5.033 11.157-16.381 7.492-16.382 7.492-1.473-.45-2.721-.998-3.783-1.632 1.453 2.491 3.804 4.475 7.867 5.716.001 0 11.349 3.665 16.382-7.492C47.985 74.368 56.95 72.954 56.95 72.954c-1.603-1.216-2.986-2.57-4.127-4.076ZM33.533 3.071a1.79 1.79 0 0 0 .831 2.309c1.865.956 4.921 2.627 7.422 4.475-.953-1.484-2.406-2.836-4.006-4.026-1.341-.997-2.847-1.945-4.247-2.758Z"></path><path fill="#f39e21" d="M60.828 60.766c2.733 5.77 2.765 11.482.069 12.749-2.696 1.266-7.538-2.243-10.271-8.013-2.734-5.77-2.331-11.629.365-12.896 2.695-1.266 7.103 2.39 9.837 8.16Z"></path><path fill="#f20d0d" fill-opacity=".15" d="M59.037 61.364c1.748 3.823 2.252 7.607 1.123 8.446-1.128.839-3.651-1.486-5.399-5.308-1.749-3.822-2.065-7.704-.937-8.543 1.128-.839 3.464 1.583 5.213 5.405Z"></path><path fill="#f20d0d" fill-opacity=".15" d="M53.49 56.368a1.19 1.19 0 0 1 .334-.409c1.128-.839 3.464 1.583 5.213 5.405 1.748 3.823 2.252 7.607 1.123 8.446-.437.325-1.084.175-1.815-.354.711-1.272.144-4.666-1.423-8.092-1.061-2.32-2.339-4.125-3.432-4.996Z"></path><path fill="#f39e21" d="M49.138 36.947c1.398.681 1.725 2.89.73 4.929-.994 2.039-2.936 3.141-4.333 2.459-1.398-.681-1.725-2.89-.73-4.929.994-2.039 2.936-3.141 4.333-2.459Z"></path><path fill="#f20d0d" fill-opacity=".15" d="M48.552 36.767c.203.029.4.089.586.18 1.398.681 1.725 2.89.73 4.929-.994 2.039-2.936 3.141-4.333 2.459-.603-.293-1.006-.871-1.191-1.596 1.314.191 2.887-.873 3.748-2.639.566-1.16.704-2.375.46-3.333Z"></path><path fill="#f39e21" d="M52.742 29.558c1.397.682 1.724 2.89.73 4.929-.995 2.039-2.936 3.141-4.334 2.46-1.397-.682-1.724-2.89-.73-4.929.995-2.039 2.936-3.141 4.334-2.46Z"></path><path fill="#f39e21" d="M52.742 29.558c1.397.682 1.724 2.89.73 4.929-.995 2.039-2.936 3.141-4.334 2.46-1.397-.682-1.724-2.89-.73-4.929.995-2.039 2.936-3.141 4.334-2.46Z"></path><path fill="#f20d0d" fill-opacity=".15" d="M52.156 29.379c.203.029.399.088.586.179 1.397.682 1.724 2.89.73 4.929-.995 2.039-2.936 3.141-4.334 2.46-.602-.294-1.006-.871-1.19-1.596 1.314.19 2.886-.873 3.748-2.64.566-1.16.704-2.375.46-3.332Z"></path><path fill="#f39e21" d="M45.535 44.335c1.397.682 1.724 2.89.73 4.929-.995 2.039-2.937 3.141-4.334 2.46-1.397-.682-1.725-2.89-.73-4.929.994-2.039 2.936-3.141 4.334-2.46Z"></path><path fill="#f20d0d" fill-opacity=".15" d="M44.856 44.144c.235.024.463.086.679.191 1.397.682 1.724 2.89.73 4.929-.995 2.039-2.937 3.141-4.334 2.46-.632-.308-1.045-.928-1.216-1.703 1.295.128 2.814-.926 3.655-2.651.545-1.117.693-2.286.486-3.226Z"></path><path fill="#f39e21" d="M39.675 65.209c-1.16 1.465-2.381 3.197-3.668 5.266.194 2.038 1.18 4.132 2.673 5.847 2.057 2.362 4.966 3.883 7.717 3.631a22.481 22.481 0 0 1 3.316-3.344 1.501 1.501 0 0 0-1.997-.238c-2.196 1.554-4.952.073-6.774-2.019-1.817-2.088-2.907-5.003-1.089-6.918a1.5 1.5 0 0 0-.178-2.225Zm-16.088-.047-1.292 2.377c.14.194.328.357.558.469l9.038 4.408c.094.046.191.081.289.106l1.238-2.676a1.539 1.539 0 0 0-.212-.126l-9.038-4.408a1.485 1.485 0 0 0-.581-.15Zm15.742-10.494-7.935-3.87-1.433 2.637.058.031 7.994 3.899c.382.186.803.195 1.173.06l.894-1.922-.003-.009a1.536 1.536 0 0 0-.748-.826Zm7.648-33.927a12.072 12.072 0 0 1-.85 2.858 1.5 1.5 0 0 0 1.143.157c2.294-.606 4.313-.137 6.073 1.345a1.5 1.5 0 0 0 .692.327l.083-.181c.411-.896.691-1.795.852-2.689-2.347-1.848-5.005-2.48-7.993-1.817Zm-3.174-14.21-1.975 3.356.036.026c.807.6 1.576 1.241 2.263 1.92.068-.075.129-.158.183-.248l2.087-3.546.001-.002c-.763-.455-1.652-.97-2.595-1.506Z"></path><path fill="#e9f431" d="M24.501 73.042s-2.396 3.544-2.738 6.879c-.135 1.315.037 2.599.644 3.697.62 1.121 1.688 2.088 3.467 2.654a1.5 1.5 0 1 0 .91-2.858c-.876-.279-1.446-.695-1.751-1.247-.513-.927-.343-2.097-.041-3.195.617-2.238 1.986-4.237 1.986-4.237a1.5 1.5 0 0 0-2.477-1.693Z"></path></svg>