<svg xmlns="http://www.w3.org/2000/svg" enable-background="new 0 0 48 48" viewBox="0 0 48 48" id="saxophone"><path fill="#ff9800" d="M30.919,4.518c-0.594-1.083,0.416-2.036,1.449-0.514c2.04,3.006,3.908,2.409,5.188,4.317
	c1.166,1.737,0.634,3.399-0.865,5.243c-4.32,5.315-16.197,19.762-18.329,21.836c-1.737,1.689-2.092,2.6-1.153,3.515
	c0.939,0.915,3.602-2.944,5.072-4.609c6.156-6.973,9.893-2.009,12.453-6.231l-0.63,12.085c-0.73-1.274-3.171-2.819-5.164-2.072
	c-1.775,0.665-4.219,5.056-6.372,6.531c-2.118,1.452-6.487,4.38-10.678,0.298c-2.921-2.845-3.168-8.486,1.859-13.665
	c3.838-3.954,15.4-14.554,19.943-18.725c1.575-1.446,2.506-3.3,0.771-4.149C32.571,7.452,31.602,5.764,30.919,4.518z"></path><path fill="#ffc107" d="M35.501,26.973L35.501,26.973c-0.437-0.026-0.812,0.308-0.837,0.744l-0.726,12.354
	c-0.026,0.437,0.308,0.811,0.744,0.837l0,0c0.437,0.026,0.811-0.308,0.837-0.744l0.726-12.354
	C36.271,27.373,35.937,26.999,35.501,26.973z"></path><polygon fill="#455a64" points="31.249 5.123 29.325 1.607 30.228 1 32.55 4.239"></polygon><circle cx="23.088" cy="29.46" r="1.298" fill="#ffc107"></circle><circle cx="20.831" cy="32.42" r="1.298" fill="#ffc107"></circle><circle cx="25.557" cy="26.498" r="1.298" fill="#ffc107"></circle><circle cx="27.85" cy="23.574" r="1.298" fill="#ffc107"></circle></svg>