<svg xmlns="http://www.w3.org/2000/svg" enable-background="new 0 0 47.5 47.5" viewBox="0 0 47.5 47.5" id="trumpet"><defs><clipPath id="a"><path d="M0 38h38V0H0v38Z"></path></clipPath></defs><g clip-path="url(#a)" transform="matrix(1.25 0 0 -1.25 0 47.5)"><path fill="#fcab40" d="m0 0-2.674 2.673 20.389 20.39c3.344 3.343 1.337 8.022 2.007 8.69.666.67 1.335.002 1.335.002l8.023-8.024c.668-.668 0-1.335 0-1.335-.669-.67-5.778.908-8.692-2.006L0 0Z" transform="translate(6.622 3.95)"></path><path fill="#ccd6dd" d="M0 0a2.369 2.369 0 0 1-3.349 3.35l.087-.087a.938.938 0 0 1-1.296-.028.945.945 0 0 1 0-1.336l3.109-3.109A.94.94 0 0 1-.08.08L0 0Z" transform="translate(6.457 3.11)"></path><path fill="#fcab40" d="M0 0c-.506 0-.98-.197-1.338-.554L-12.033-11.25a1.879 1.879 0 0 1-.554-1.337c0-.506.197-.979.553-1.336a1.882 1.882 0 0 1 1.337-.555c.506 0 .981.198 1.338.555L1.337-3.228a1.895 1.895 0 0 1-.001 2.675A1.88 1.88 0 0 1 0 0m-10.697-18.259c-1.515 0-2.939.59-4.011 1.661a5.638 5.638 0 0 0-1.66 4.011c0 1.515.59 2.94 1.661 4.011L-4.012 2.12A5.638 5.638 0 0 0 0 3.781c1.515 0 2.939-.59 4.011-1.661a5.679 5.679 0 0 0 0-8.021L-6.685-16.597a5.638 5.638 0 0 0-4.012-1.662" transform="translate(25.007 21.55)"></path><path fill="#fcab40" d="M0 0a1.892 1.892 0 0 1 2.674 2.674l-8.023 8.023a1.89 1.89 0 0 1-2.673-2.675L0 0Z" transform="translate(26.344 12.974)"></path><path fill="#fcab40" d="M0 0a1.892 1.892 0 0 1 2.676 2.674l-8.023 8.022a1.89 1.89 0 1 1-2.674-2.675L0 0Z" transform="translate(22.332 8.963)"></path><path fill="#fcab40" d="M0 0a1.89 1.89 0 1 1 2.673 2.674l-8.021 8.021a1.89 1.89 0 1 1-2.674-2.674L0 0Z" transform="translate(18.322 4.952)"></path><path fill="#ccd6dd" d="M0 0a.946.946 0 0 1 1.337 0l1.337 1.336a.947.947 0 0 1-1.337 1.338L0 1.336A.945.945 0 0 1 0 0" transform="translate(15.648 23.67)"></path><path fill="#ccd6dd" d="M0 0a.943.943 0 0 1 1.337 0l1.336 1.337a.944.944 0 1 1-1.336 1.337L0 1.337A.944.944 0 0 1 0 0" transform="translate(11.637 19.66)"></path><path fill="#ccd6dd" d="M0 0a.944.944 0 0 1 1.337 0l1.337 1.338a.945.945 0 1 1-1.337 1.337L0 1.337A.946.946 0 0 1 0 0" transform="translate(7.625 15.648)"></path></g></svg>