<svg xmlns="http://www.w3.org/2000/svg" data-name="Layer 1" viewBox="0 0 512 512" id="trumpet"><path fill="#eb304a" d="M90,489.49v-377H332v377a15,15,0,0,1-22.51,13l-91-52.63a15,15,0,0,0-15,0l-91,52.63a15,15,0,0,1-22.49-13Z"></path><path fill="#e4222e" d="M188.49 449.86l-91 52.61a15 15 0 0 0 15 0l91-52.63A15 15 0 0 0 188.49 449.86zM317 112.49v377a15 15 0 0 1-7.51 13h0a15 15 0 0 0 22.51-13v-377z"></path><circle cx="211" cy="299.99" r="94.79" fill="#fff"></circle><path fill="#e1e1e3" d="M211,205.2q-3.8,0-7.5.29a94.79,94.79,0,0,1,0,189c2.47.19,5,.3,7.5.3a94.79,94.79,0,1,0,0-189.58Z"></path><polygon fill="#eb304a" points="211.71 357.12 225.81 343.01 225.81 314.1 254.02 314.1 268.12 299.99 254.02 285.89 225.81 285.89 225.81 256.98 211.71 242.87 197.6 256.98 197.6 285.89 167.98 285.89 153.88 299.99 167.98 314.1 197.6 314.1 197.6 343.01 211.71 357.12"></polygon><path fill="#e4222e" d="M254,285.89H225.81V257l-14.1-14.11L197.6,257v1.78L210.81,272v25.91a3,3,0,0,0,3,3H239l13.21,13.21H254L268.12,300Z"></path><rect width="360" height="30" x="17.5" y="112.51" fill="#f8be32"></rect><path fill="#fecc30" d="M467.46,231.51a110.47,110.47,0,0,0-90-89v-30a119.46,119.46,0,0,0,62.54-37,118.74,118.74,0,0,0,27.4-56.12A742.93,742.93,0,0,1,475,127.82,743.57,743.57,0,0,1,467.46,231.51Z"></path><path fill="#f8be32" d="M482.08,243.16a15,15,0,0,1-15-15,1007.6,1007.6,0,0,0,5.26-107.49c-.17-35.43-2.19-68.29-5.26-98.16a15.3,15.3,0,0,1,4.39-10.61,15,15,0,0,1,25.61,10.61,717,717,0,0,1,7.42,105.36,719.3,719.3,0,0,1-7.42,100.29C495.41,236.85,488.91,243.16,482.08,243.16Z"></path><circle cx="307.1" cy="462.99" r="7.5" fill="#fecc30"></circle><circle cx="116.21" cy="462.99" r="7.5" fill="#fecc30"></circle><circle cx="307.1" cy="171.99" r="7.5" fill="#fecc30"></circle><circle cx="116.21" cy="171.99" r="7.5" fill="#fecc30"></circle><rect width="34" height="65" x="157.5" y="47.5" fill="#fecc30"></rect><rect width="63" height="29" x="143" y="18.5" fill="#787681" rx="5"></rect><path fill="#57565c" d="M201,18.5H191v9a5,5,0,0,1-5,5H143v10a5,5,0,0,0,5,5h53a5,5,0,0,0,5-5v-19A5,5,0,0,0,201,18.5Z"></path><rect width="34" height="65" x="247.5" y="47.5" fill="#fecc30"></rect><path fill="#f8be32" d="M266.5 47.5v35a15 15 0 0 1-15 15h-4v15h34v-65zM176.5 47.5v35a15 15 0 0 1-15 15h-4v15h34v-65z"></path><rect width="63" height="29" x="233" y="18.5" fill="#787681" rx="5"></rect><path fill="#57565c" d="M291,18.5H281v9a5,5,0,0,1-5,5H233v10a5,5,0,0,0,5,5h53a5,5,0,0,0,5-5v-19A5,5,0,0,0,291,18.5Z"></path><path fill="#787681" d="M22.5,84h0a15,15,0,0,1,15,15v57a15,15,0,0,1-15,15h0a15,15,0,0,1-15-15V99A15,15,0,0,1,22.5,84Z"></path><path fill="#57565c" d="M22.5,84A14.89,14.89,0,0,0,15,86a15,15,0,0,1,7.5,13v57A15,15,0,0,1,15,169a15,15,0,0,0,22.5-13V99A15,15,0,0,0,22.5,84Z"></path><path d="M504.57,21.92A22.5,22.5,0,0,0,466.11,6.64a22.81,22.81,0,0,0-5.78,10.27A7.46,7.46,0,0,0,460,18,111.19,111.19,0,0,1,434.4,70.52,111.21,111.21,0,0,1,376.53,105H289V55h2a12.52,12.52,0,0,0,12.5-12.5v-19A12.52,12.52,0,0,0,291,11H238a12.52,12.52,0,0,0-12.5,12.5v19A12.52,12.52,0,0,0,238,55h2v50H199V55h2a12.52,12.52,0,0,0,12.5-12.5v-19A12.52,12.52,0,0,0,201,11H148a12.52,12.52,0,0,0-12.5,12.5v19A12.52,12.52,0,0,0,148,55h2v50H45V99A22.5,22.5,0,0,0,0,99v57a22.5,22.5,0,0,0,45,0v-6H82.5V489.48a22.6,22.6,0,0,0,3,11.24A22.5,22.5,0,0,0,116.24,509l91-52.63a7.5,7.5,0,0,1,7.49,0l91,52.63A22.52,22.52,0,0,0,317,512h0a22.53,22.53,0,0,0,22.48-22.51V150h37.27A103.32,103.32,0,0,1,460,232.27a22.54,22.54,0,0,0,22.12,18.39c10.61,0,20-8.87,22.36-21.09l.06-.34A728,728,0,0,0,512,127.89,726.8,726.8,0,0,0,504.57,21.92ZM30,156a7.5,7.5,0,0,1-15,0V99a7.5,7.5,0,0,1,15,0ZM240.5,26h48V40h-48ZM274,55v50H255V55ZM150.5,26h48V40h-48ZM184,55v50H165V55ZM324.5,489.49A7.51,7.51,0,0,1,317,497h0a7.51,7.51,0,0,1-3.76-1l-91-52.63a22.56,22.56,0,0,0-22.51,0l-91,52.63a7.5,7.5,0,0,1-11.24-6.5V150h227ZM370,135H332.47l-.47,0-.48,0h-241L90,135l-.48,0H45V120H370Zm92.42,60.07A118.46,118.46,0,0,0,385,136.37v-18a126.13,126.13,0,0,0,60.63-37.87,126.3,126.3,0,0,0,16.79-24.4c1.49,21.51,2.31,43.14,2.42,64.64C465,145.41,464.11,170.31,462.38,195.08Zm27.3,31.81c-1.1,5.42-4.78,8.77-7.6,8.77a7.52,7.52,0,0,1-7.5-7.19,1016.79,1016.79,0,0,0,5.26-107.84c-.16-32.78-1.93-65.89-5.25-98.41a7.72,7.72,0,0,1,2.18-5,7.5,7.5,0,0,1,12.81,5.3,6.54,6.54,0,0,0,.08,1.08A711.79,711.79,0,0,1,497,127.84,713.74,713.74,0,0,1,489.68,226.89Zm-373.47-47.4a7.5,7.5,0,1,0-7.5-7.5A7.5,7.5,0,0,0,116.21,179.49Zm0,291a7.5,7.5,0,1,0-7.5-7.5A7.5,7.5,0,0,0,116.21,470.49ZM211,402.28A102.29,102.29,0,1,0,108.71,300,102.41,102.41,0,0,0,211,402.28Zm0-189.58A87.29,87.29,0,1,1,123.71,300,87.38,87.38,0,0,1,211,212.7Zm-62.43,92.59,14.1,14.11a7.55,7.55,0,0,0,5.31,2.2H190.1V343a7.52,7.52,0,0,0,2.19,5.3l14.11,14.11a7.51,7.51,0,0,0,5.31,2.2h0a7.51,7.51,0,0,0,5.3-2.2l14.1-14.11a7.5,7.5,0,0,0,2.2-5.3V321.6H254a7.51,7.51,0,0,0,5.3-2.2l14.1-14.11a7.5,7.5,0,0,0,0-10.61l-14.1-14.1a7.5,7.5,0,0,0-5.3-2.19H233.31V257a7.51,7.51,0,0,0-2.2-5.31L217,237.56a7.5,7.5,0,0,0-5.3-2.19h0a7.54,7.54,0,0,0-5.31,2.19l-14.11,14.11A7.54,7.54,0,0,0,190.1,257v21.41H168a7.54,7.54,0,0,0-5.31,2.19l-14.1,14.1A7.52,7.52,0,0,0,148.57,305.29Zm22.51-11.9H197.6a7.5,7.5,0,0,0,7.5-7.5V260.08l6.61-6.61,6.6,6.61v25.81a7.5,7.5,0,0,0,7.5,7.5h25.1l6.6,6.6-6.6,6.61h-25.1a7.5,7.5,0,0,0-7.5,7.5v25.8l-6.6,6.61-6.61-6.61V314.1a7.5,7.5,0,0,0-7.5-7.5H171.09L164.48,300Zm136-113.9a7.5,7.5,0,1,0-7.5-7.5A7.5,7.5,0,0,0,307.1,179.49Zm0,276a7.5,7.5,0,1,0,7.5,7.5A7.5,7.5,0,0,0,307.1,455.49Z"></path></svg>