<svg xmlns="http://www.w3.org/2000/svg" viewBox="0 0 64 64" id="trumpet"><path fill="#efc89d" d="M40.51,27.67H20.62a8.73,8.73,0,0,0,0,17.45H36.52A8.74,8.74,0,0,0,45,34.22l.11-.12a11,11,0,0,1,6.49,4.73V22.29C49.48,25.81,45.05,27.67,40.51,27.67ZM22.18,33.44H39.45l0,.24A4.66,4.66,0,0,1,40,36.05a4.24,4.24,0,0,1-4.41,4.4H22.18a3.51,3.51,0,0,1,0-7Z"></path><path fill="#e5936b" d="M8 27.67v4.51h5a8.71 8.71 0 017.64-4.5zM23.5 33.44H35.62v7H23.5zM23.5 23.29H35.62v4.38H23.5z"></path><path fill="#f0f4f7" d="M53.77,18.88A2.23,2.23,0,0,1,56,21.11V40a2.23,2.23,0,0,1-4.45,0V21.11A2.22,2.22,0,0,1,53.77,18.88Z"></path><path fill="#ebb87f" d="M39.45,33.44l0,.24.16.32a4.82,4.82,0,0,1,.45,2v8.33A8.76,8.76,0,0,0,45,34.22l.11-.12a16,16,0,0,0-4.55-.66Z"></path><path fill="#e17c46" d="M33.06 33.44h2.56v7H33.06zM33.06 23.29h2.56v4.38H33.06z"></path><path fill="#e0e9ee" d="M53.78,18.88a2.23,2.23,0,0,0-1.12.3,2.21,2.21,0,0,1,1.11,1.93V40a2.23,2.23,0,0,1-1.11,1.93A2.24,2.24,0,0,0,56,40V21.11A2.22,2.22,0,0,0,53.78,18.88Z"></path><path fill="#ebb87f" d="M51.55,22.29a9.51,9.51,0,0,1-2.37,2.65V36.17a9.55,9.55,0,0,1,2.37,2.66Z"></path><path fill="#e17c46" d="M16.53,27.67a8.71,8.71,0,0,0-7.64,4.5H13a8.71,8.71,0,0,1,7.64-4.5Z"></path><path fill="#0e232e" d="M53.77,17.88a3.23,3.23,0,0,0-3.22,3.23V22c-1.82,2.9-5.63,4.69-10,4.69H36.62V24.29h.24a1,1,0,0,0,0-2H22.26a1,1,0,1,0,0,2h.24v2.38H9v-.48a1,1,0,1,0-2,0v7.47a1,1,0,0,0,2,0v-.48h2.46a9.56,9.56,0,0,0-.56,3.22,9.72,9.72,0,0,0,9.71,9.72H36.52a9.73,9.73,0,0,0,9.71-9.71c0-.28,0-.56-.06-.84a9.6,9.6,0,0,1,4.38,3.57V40A3.23,3.23,0,0,0,57,40V21.11A3.23,3.23,0,0,0,53.77,17.88ZM34.62,26.67h-2V24.29h2Zm-6.08,0V24.29h2v2.38Zm-4-2.38h2v2.38h-2ZM9,31.18V28.67h5.73a10,10,0,0,0-2.3,2.51Zm31.51,1.26H22.18a4.51,4.51,0,0,0,0,9H35.62A5.23,5.23,0,0,0,41,36.05a6,6,0,0,0-.21-1.6,14.72,14.72,0,0,1,3.23.41,7.3,7.3,0,0,1,.18,1.55,7.72,7.72,0,0,1-7.71,7.71H20.61a7.73,7.73,0,0,1,0-15.45H40.51a14.77,14.77,0,0,0,10-3.58V36A14.73,14.73,0,0,0,40.51,32.44Zm-12,7v-5h2v5Zm-4,0v-5h2v5Zm-2.32,0a2.51,2.51,0,0,1,0-5h.32v5Zm10.4-5h2v5h-2Zm4,0h2.07A3.69,3.69,0,0,1,39,36.05a3.18,3.18,0,0,1-2.41,3.27ZM55,40a1.23,1.23,0,0,1-2.45,0V21.11a1.23,1.23,0,1,1,2.45,0Z"></path></svg>