<svg xmlns="http://www.w3.org/2000/svg" data-name="Layer 3" viewBox="0 0 64 64" id="violin"><circle cx="17.32" cy="9.49" r=".5" fill="#ff8131"></circle><circle cx="17.32" cy="12.78" r=".5" fill="#ff8131"></circle><circle cx="26.68" cy="7.93" r=".5" fill="#ff8131"></circle><circle cx="26.68" cy="11.22" r=".5" fill="#ff8131"></circle><path fill="#ff8131" d="M21.85,59.5c-7.69,.11-12.75-6.61-9.74-13.7l.85-.13c.1,.12,.22,.2,.35,.22,2.02-.1,3.07-6.59,1.78-7.97-.28-.42-.67-.4-1.01-.13l-.8-.34c-.09-.81-.25-1.66-.48-2.52-1.75-6.08,2.85-12.56,9.2-12.43,6.36-.13,10.95,6.35,9.2,12.43-.22,.87-.38,1.72-.48,2.52l-.8,.34c-.18-.14-.34-.21-.49-.21-2.23,.67-.68,8.32,1.18,8.31,.21-.03,.33-.1,.43-.23l.85,.13c3.08,7.22-2.27,13.99-10.04,13.7Z"></path><polygon fill="#414042" points="20.49 42.5 21.5 6.99 22.5 6.99 23.51 42.5 20.49 42.5"></polygon><path fill="#ff8131" d="M22,8.76c-.5,0-.97-.19-1.33-.55l-.88-.88c-.73-.73-.73-1.92,0-2.65l.88-.88c.35-.35,.83-.55,1.33-.55s.97,.19,1.33,.55l.88,.88c.73,.73,.73,1.92,0,2.65l-.88,.88c-.35,.35-.83,.55-1.33,.55Z"></path><polygon fill="#414042" points="21.42 59.5 20.51 53.64 19.26 50.5 24.73 50.5 23.49 53.72 22.59 59.5 21.42 59.5"></polygon><rect width="2" height="5" x="21" y="48" fill="#414042" transform="rotate(90 22 50.5)"></rect><path fill="#414042" d="M18.37,58.99c-1.46,.02-3.21-.63-4.15-1.62-1.89-1.91-.34-4.09,2.35-4.02,2.12-.04,5.39,1.47,4.93,3.86-.28,1.08-1.51,1.77-3.13,1.77Z"></path><path fill="#ff8131" d="M46.07,58.11c-.72,0-1.05-.48-1.06-.62-2.5-18.83-1.65-43.59,.01-51.7,.11-.51,.57-.88,1.18-.78,.42,.07,.89,.64,.78,1.18-1.63,7.97-2.46,32.39,.01,51.03,.03,.25-.14,.88-.92,.88Z"></path><path fill="#414042" d="M43.58 54.22c-.57 0-1.06-.39-1.2-.94l-.63-2.53c-.09-.37-.01-.76.22-1.06.24-.3.59-.48.98-.48h3.32c.68 0 1.24.55 1.24 1.24v2.53c0 .68-.55 1.24-1.24 1.24h-2.69zM45.58 9.56c-.07 0-.15 0-.22-.01l-2.6-.29c-.23-.03-.4-.23-.37-.47l.24-2.14c.03-.23.23-.4.47-.37l4.55.51-.12 1.03c-.11 1-.95 1.75-1.95 1.75z"></path><path d="M31.58,45c-.35-.05-.7,.08-.92,.36-.03,.03-.05,.04-.06,.04-1.5-.52-2.43-6.37-1.15-7.31,.61,.55,1.67,.32,1.77-.58,.09-.78,.25-1.61,.47-2.45,1.66-5.85-2.24-12.22-8.25-12.96l-.3-10.37h2.38c.5,1.24,2.45,.85,2.43-.51,.02-1.37-1.92-1.74-2.44-.5h-2.4s-.05-1.71-.05-1.71c.28-.13,.53-.35,.74-.57h1.72c.5,1.24,2.45,.85,2.43-.51,.02-1.36-1.93-1.75-2.43-.5h-.75c.71-.93,.64-2.26-.21-3.11l-.88-.88c-.89-.93-2.47-.93-3.36,0,0,0-.88,.88-.88,.88-.93,.93-.93,2.43,0,3.36,.37,.33,1.02,1.13,1.48,1.32h-2.43c-.52-1.25-2.46-.88-2.44,.49-.02,1.36,1.93,1.75,2.43,.5h2.43s-.06,2.3-.06,2.3h-2.36c-.48-1.26-2.48-.88-2.44,.49-.02,1.36,1.93,1.75,2.43,.5h2.34s-.25,8.82-.25,8.82c-6.02,.74-9.92,7.1-8.26,12.96,.22,.84,.38,1.67,.47,2.45,.13,.94,1.14,1.1,1.79,.58,1.25,.97,.34,6.81-1.19,7.31,0,0-.02-.02-.04-.04-.45-.59-1.44-.43-1.7,.25-1.54,3.82-1.09,7.75,1.34,10.63,.37,1.72,3.06,3.27,5.21,3.25,4.74,1.43,11.06-.13,13.49-4.12,1.83-2.75,2.08-6.31,.68-9.76-.14-.32-.43-.56-.78-.61ZM26.95,11.22c0,.35-.55,.35-.54,0,0-.35,.55-.35,.54,0Zm0-3.29c0,.35-.55,.35-.54,0,0-.35,.55-.35,.54,0Zm-9.9,1.56c0-.35,.55-.35,.54,0,0,.35-.55,.35-.54,0Zm0,3.29c0-.36,.54-.36,.54,0,0,.35-.55,.35-.54,0Zm3.09-5.81c-.53-.53-.53-1.41,0-1.94l.89-.89c.54-.53,1.4-.53,1.94,0,0,0,.89,.89,.89,.89,.53,.53,.53,1.41,0,1.94-.21,.21-.63,.64-.84,.84-.53,.58-1.43,.59-1.99,.05,0,0-.05-.05-.05-.05l-.84-.84Zm1.79,2.29h.14l.93,32.74h-2l.93-32.74Zm-5.01,49.04c-4.83-1.37-3.38-5.43,1.11-4.25,4.68,1.32,3.56,5.37-1.11,4.25Zm3.9,.56v.09s-.09,0-.14,0c.05-.02,.1-.05,.14-.08Zm1.03,.14l-.15-1c.64-1.05,.38-2.27-.51-3.24l-.19-1.25-.6-1.51h3.21l-.61,1.59-.84,5.41h-.31Zm2.15-8h-4v-1h4v1Zm-.82,7.94l.79-5.09,.94-2.45c.17-.25,.06-1.11,.09-1.4,0-.55-.45-1-1-1h-4c-.55,0-1,.45-1,1v1c-.06,.23,.95,2.51,1.03,2.77v.04c-1.93-1.32-6.05-1.44-6.96,.88-1.52-2.39-1.8-5.51-.5-8.7,1.53,1.45,3.03-1.28,3.47-3.91,.43-2.85-.27-5.94-2.27-4.68-.1-.87-.27-1.74-.49-2.59-1.46-5.67,2.04-10.87,7.26-11.69l-.54,18.85c-.03,.55,.45,1.04,1,1.03,0,0,2,0,2,0,.55,.01,1.03-.48,1-1.03,0,0-.54-18.85-.54-18.85,5.22,.82,8.72,6.02,7.26,11.69-.22,.85-.39,1.72-.49,2.59-2-1.26-2.7,1.83-2.27,4.68,.44,2.64,1.94,5.36,3.47,3.91,2.57,6.32-1.03,12.34-8.25,12.95Z"></path><path d="M24.5 45h0c-.04-.43.21-1.47-.5-1.46-.71 0-.46 1.03-.5 1.46h-1c-.04-.43.21-1.47-.5-1.46-.71 0-.46 1.03-.5 1.46h-1c-.04-.43.21-1.47-.5-1.46-.71 0-.46 1.03-.5 1.46-.65-.01-.65 1.01 0 1v1.77c0 .28.22.5.5.5s.5-.22.5-.5v-1.77h1v1.77c0 .28.22.5.5.5s.5-.22.5-.5v-1.77h1v1.77c0 .28.22.5.5.5s.5-.22.5-.5v-1.77c.65.01.65-1.01 0-1zM18.35 42.06c-1.82-.63-1.94 1.25-1.52 3.07.32 1.9.48 3.39-.54 3.92-.51.24-.99.22-1.27-.04-.28-.27-.3-.76-.06-1.3.11-.25 0-.55-.25-.66-.25-.12-.55 0-.66.25-.42.92-.31 1.85.27 2.42.64.62 1.61.62 2.41.23 1.77-.9 1.39-3.16 1.08-4.98-.06-.65-.47-2.07.03-2.05.04.04.1.17.17.65.04.27.29.46.56.43.84-.17.27-1.66-.22-1.93zM29.29 47.04c-.25.11-.36.41-.25.66.53 1.09-.24 1.88-1.32 1.35-1.03-.53-.87-2.02-.55-3.92.24-1.44.45-2.67-.5-3.1-1.03-.44-1.62.48-1.67 1.4-.1.64.91.78.99.14.07-.49.14-.62.15-.64.5-.06.1 1.42.04 2.04-.3 1.81-.68 4.07 1.1 4.98 1.81.95 3.62-.7 2.67-2.66-.11-.25-.41-.37-.66-.25zM48.03 7.87c.12-.58.1-1.34-.56-1.57.34-2.1-2.76-2.48-2.99-.37l-1.25-.14c-.54-.04-1.04.32-1.1.88 0 .64-.51 2.41.07 2.81-2.03 9.46-2.09 26.21-.12 39.47-.66.37-1.02 1.18-.82 1.93 0 0 .63 2.52.63 2.52.23 1.06 1.31 1.43 2.28 1.32.36 1.32-.3 3.81 1.69 3.85 2.51-.01 1.34-2.48 1.3-4.11 1.28-.69.73-2.67.84-4 0-.84-.6-1.54-1.39-1.7-1.15-14.65-.7-30.68.34-39.12.59-.39 1-1.02 1.08-1.77zm-2.52-1.97c.06-.27.33-.45.59-.39.27.06.45.32.39.59 0 .02-.01.03-.01.05l-1-.11s.02-.09.03-.14zm-2.36 3.91l.75.08c-.99 8.75-1.4 24.44-.3 38.83h-.54c-1.89-12.96-1.84-29.64.09-38.91zm2.71 47.76c-.18 0-.34-.04-.36-.14-.12-.89-.23-1.79-.33-2.71h1.02c.09.87.2 1.73.31 2.58.02.17-.34.27-.64.27zm.84-7.69c.18.12.3.34.3.58v2.52c0 .41-.33.74-.74.74-.59 0-1.61 0-2.2 0-.37 0-.9.05-1.1-.33 0-.01-.01-.01-.01-.01-.27-.71-.51-2.02-.72-2.75-.12-.46.22-.91.71-.91.16 0 .57 0 .74 0 .5 0 1.51 0 2.01 0 .28.02.8-.08 1.01.16zm-1.09-1.16h-1.01c-1.11-14.37-.7-30.03.29-38.72.31.04.7.09 1.01.04-1.01 8.62-1.42 24.31-.29 38.68zm.41-39.74c-.19.08-.4.1-.6.07-.77-.08-1.76-.21-2.52-.28l.22-1.98c1.26.14 2.72.3 3.98.44 0 .74-.31 1.56-1.08 1.75z"></path></svg>