<svg xmlns="http://www.w3.org/2000/svg" width="32" height="32" viewBox="0 0 8.467 8.467" id="violin"><g fill="#586597"><path d="M-809.717 938.244a.5.5 0 0 0-.281.092l-2.48 1.77a.5.5 0 0 0-.057.755l-6.813 6.813c-.775-.568-1.62-1.024-2.513-1.297-1.357-.415-2.649-.382-3.696.082-.94.416-1.673 1.186-2.035 2.27l-.611.132a.5.5 0 0 0-.344.713l.611 1.215a3.11 3.11 0 0 1-.984 1.158c-.504.36-1.101.574-1.758.473l-.955-.95a.5.5 0 0 0-.814.16l-.383.94c-1.426.176-2.578.989-3.191 2.1-.668 1.208-.767 2.789-.26 4.502 1.012 3.426 4.127 6.54 7.553 7.553 1.712.506 3.293.407 4.501-.26 1.112-.614 1.884-1.693 2.104-3.18l.936-.394a.5.5 0 0 0 .16-.815l-.9-.9a2.427 2.427 0 0 1 .423-1.813c.343-.48.802-.825 1.164-.982l1.211.607a.5.5 0 0 0 .713-.342l.139-.615a3.649 3.649 0 0 0 2.261-2.031c.465-1.046.499-2.335.084-3.691-.272-.894-.729-1.742-1.296-2.518l6.81-6.81a.5.5 0 0 0 .756-.057l1.77-2.48a.5.5 0 0 0-.022-.606h.002a.5.5 0 0 0-.03-.031l-1.415-1.414a.5.5 0 0 0-.36-.149z" color="#000" font-family="sans-serif" font-weight="400" overflow="visible" transform="translate(221.774 -247.821) scale(.26458)" style="line-height:normal;font-variant-ligatures:normal;font-variant-position:normal;font-variant-caps:normal;font-variant-numeric:normal;font-variant-alternates:normal;font-feature-settings:normal;text-indent:0;text-align:start;text-decoration-line:none;text-decoration-style:solid;text-decoration-color:#000;text-transform:none;text-orientation:mixed;shape-padding:0;isolation:auto;mix-blend-mode:normal"></path><path fill="#c19999" d="m-809.768 939.395.815.814-1.18 1.66a.5.5 0 0 0-.642.059l-11.666 11.666-.71-.711 11.667-11.666a.5.5 0 0 0 .062-.637z" color="#000" font-family="sans-serif" font-weight="400" overflow="visible" transform="translate(221.774 -247.821) scale(.26458)" style="line-height:normal;font-variant-ligatures:normal;font-variant-position:normal;font-variant-caps:normal;font-variant-numeric:normal;font-variant-alternates:normal;font-feature-settings:normal;text-indent:0;text-align:start;text-decoration-line:none;text-decoration-style:solid;text-decoration-color:#000;text-transform:none;text-orientation:mixed;shape-padding:0;isolation:auto;mix-blend-mode:normal"></path><path fill="#fda393" d="M-823.799 947.088a5.235 5.235 0 0 1 1.645.246c.724.222 1.432.59 2.092 1.055l-4.145 4.144a.5.5 0 0 0 .004.705l1.414 1.414a.5.5 0 0 0 .7 0l4.144-4.144c.466.66.835 1.369 1.056 2.094.359 1.172.305 2.211-.043 2.994-.347.782-.974 1.33-1.904 1.562a.5.5 0 0 0-.367.381l-.059.268-.836-.418a.495.495 0 0 0-.382-.028c-.657.22-1.335.714-1.84 1.42-.505.707-.82 1.653-.614 2.688.02.096.07.186.14.256l.53.533-.52.217a.497.497 0 0 0-.304.418c-.111 1.3-.7 2.19-1.62 2.699-.921.508-2.216.624-3.735.176-3.038-.898-5.983-3.844-6.881-6.881-.449-1.519-.333-2.814.176-3.735.508-.92 1.398-1.51 2.699-1.62a.499.499 0 0 0 .418-.305l.217-.522.533.533c.07.07.159.118.256.137 1.034.207 1.98-.108 2.687-.613.707-.505 1.201-1.181 1.42-1.838a.503.503 0 0 0-.027-.383l-.418-.84.267-.056a.502.502 0 0 0 .383-.368c.233-.929.78-1.557 1.563-1.904a3.528 3.528 0 0 1 1.351-.285z" color="#000" font-family="sans-serif" font-weight="400" overflow="visible" transform="translate(221.774 -247.821) scale(.26458)" style="line-height:normal;font-variant-ligatures:normal;font-variant-position:normal;font-variant-caps:normal;font-variant-numeric:normal;font-variant-alternates:normal;font-feature-settings:normal;text-indent:0;text-align:start;text-decoration-line:none;text-decoration-style:solid;text-decoration-color:#000;text-transform:none;text-orientation:mixed;shape-padding:0;isolation:auto;mix-blend-mode:normal"></path><path fill="#7585a7" d="M-142.338 364.044c.123.122.141.326.016.452l-.469.468a.131.131 0 0 0 0 .188.131.131 0 0 0 .188 0 .132.132 0 1 1 .187.186.398.398 0 0 1-.561 0 .398.398 0 0 1 0-.56l.468-.469c.012-.012.016-.044-.016-.077-.033-.033-.066-.028-.078-.017a.132.132 0 1 1-.186-.186c.125-.126.329-.107.451.015zm-.842-.842c.122.122.142.327.016.453a.133.133 0 1 1-.187-.188c.011-.012.016-.045-.017-.078-.032-.032-.065-.028-.077-.016l-.468.468a.398.398 0 0 1-.561 0 .398.398 0 0 1 0-.56.133.133 0 1 1 .188.187.13.13 0 0 0-.001.187.131.131 0 0 0 .188 0l.468-.469c.125-.125.329-.107.451.016z" color="#000" font-family="sans-serif" font-weight="400" overflow="visible" style="line-height:normal;font-variant-ligatures:normal;font-variant-position:normal;font-variant-caps:normal;font-variant-numeric:normal;font-variant-alternates:normal;font-feature-settings:normal;text-indent:0;text-align:start;text-decoration-line:none;text-decoration-style:solid;text-decoration-color:#000;text-transform:none;text-orientation:mixed;shape-padding:0;isolation:auto;mix-blend-mode:normal" transform="translate(146.118 -358.516)"></path><path d="M-143.53 364.974a.132.132 0 0 1-.06.21l-.841.28a.132.132 0 0 1-.168-.167l.28-.843a.132.132 0 0 1 .219-.05l.56.56a.132.132 0 0 1 .01.01z" color="#000" font-family="sans-serif" font-weight="400" overflow="visible" style="line-height:normal;font-variant-ligatures:normal;font-variant-position:normal;font-variant-caps:normal;font-variant-numeric:normal;font-variant-alternates:normal;font-feature-settings:normal;text-indent:0;text-align:start;text-decoration-line:none;text-decoration-style:solid;text-decoration-color:#000;text-transform:none;text-orientation:mixed;shape-padding:0;isolation:auto;mix-blend-mode:normal" transform="translate(146.118 -358.516)"></path><path fill="#fbd4b4" d="m-143.876 365-.258-.259-.132.389z" color="#000" font-family="sans-serif" font-weight="400" overflow="visible" style="line-height:normal;font-variant-ligatures:normal;font-variant-position:normal;font-variant-caps:normal;font-variant-numeric:normal;font-variant-alternates:normal;font-feature-settings:normal;text-indent:0;text-align:start;text-decoration-line:none;text-decoration-style:solid;text-decoration-color:#000;text-transform:none;text-orientation:mixed;shape-padding:0;isolation:auto;mix-blend-mode:normal" transform="translate(146.118 -358.516)"></path><path style="line-height:normal;font-variant-ligatures:normal;font-variant-position:normal;font-variant-caps:normal;font-variant-numeric:normal;font-variant-alternates:normal;font-feature-settings:normal;text-indent:0;text-align:start;text-decoration-line:none;text-decoration-style:solid;text-decoration-color:#000;text-transform:none;text-orientation:mixed;shape-padding:0;isolation:auto;mix-blend-mode:normal" d="m-138.674 360.474-.188.188-.28-.28.188-.188zm-.42.421-.187.187-.28-.28.186-.187zm-.234-1.076-.188.188-.282-.282.188-.187zm-.422.422-.186.186-.282-.282.187-.186z" color="#000" font-family="sans-serif" font-weight="400" overflow="visible" transform="translate(146.118 -358.516)"></path><path d="M6.708 6.817a.132.132 0 0 1-.132.133.132.132 0 0 1-.132-.133.132.132 0 0 1 .132-.132.132.132 0 0 1 .132.132z"></path><path style="line-height:normal;font-variant-ligatures:normal;font-variant-position:normal;font-variant-caps:normal;font-variant-numeric:normal;font-variant-alternates:normal;font-feature-settings:normal;text-indent:0;text-align:start;text-decoration-line:none;text-decoration-style:solid;text-decoration-color:#000;text-transform:none;text-orientation:mixed;shape-padding:0;isolation:auto;mix-blend-mode:normal" d="M-139.071 363.978a.132.132 0 0 0 .004.187l.094.094a.132.132 0 1 0 .186-.187l-.094-.094a.132.132 0 0 0-.19 0zm.458.478a.132.132 0 0 0 .014.177l.092.092a.132.132 0 1 0 .187-.186l-.093-.093a.132.132 0 0 0-.2.01zm-.464.094a.132.132 0 0 0 .196.177l.094-.094a.132.132 0 1 0-.186-.187l-.094.094a.132.132 0 0 0-.01.01zm.468-.468a.132.132 0 0 0 .196.177l.093-.093a.132.132 0 1 0-.186-.186l-.093.092a.132.132 0 0 0-.01.01z" color="#000" font-family="sans-serif" font-weight="400" overflow="visible" transform="translate(146.118 -358.516)"></path><path d="M6.047 6.024a.132.132 0 0 1-.133.132.132.132 0 0 1-.132-.132.132.132 0 0 1 .132-.133.132.132 0 0 1 .133.133z"></path><path d="M-144.124 359.84a.132.132 0 0 1-.014.263h-.129a.132.132 0 1 1 0-.264h.13a.132.132 0 0 1 .013 0zm.662 0a.132.132 0 0 1-.014.263h-.129a.132.132 0 1 1 0-.264h.13a.132.132 0 0 1 .013 0z" color="#000" font-family="sans-serif" font-weight="400" overflow="visible" style="line-height:normal;font-variant-ligatures:normal;font-variant-position:normal;font-variant-caps:normal;font-variant-numeric:normal;font-variant-alternates:normal;font-feature-settings:normal;text-indent:0;text-align:start;text-decoration-line:none;text-decoration-style:solid;text-decoration-color:#000;text-transform:none;text-orientation:mixed;shape-padding:0;isolation:auto;mix-blend-mode:normal" transform="translate(146.118 -358.516)"></path><path d="M3.043.661a.132.132 0 0 0 .132.132.132.132 0 0 0 .132-.132.132.132 0 0 0-.132-.132.132.132 0 0 0-.132.132zM1.984 2.645a.132.132 0 0 0 .133.133.132.132 0 0 0 .132-.133.132.132 0 0 0-.132-.132.132.132 0 0 0-.133.132z"></path><path d="M-144.002 360.224a.132.132 0 0 1 .263.014v.129a.132.132 0 1 1-.263 0v-.13a.132.132 0 0 1 0-.013zm0-.662a.132.132 0 0 1 .263.014v.129a.132.132 0 1 1-.263 0v-.13a.132.132 0 0 1 0-.013z" color="#000" font-family="sans-serif" font-weight="400" overflow="visible" style="line-height:normal;font-variant-ligatures:normal;font-variant-position:normal;font-variant-caps:normal;font-variant-numeric:normal;font-variant-alternates:normal;font-feature-settings:normal;text-indent:0;text-align:start;text-decoration-line:none;text-decoration-style:solid;text-decoration-color:#000;text-transform:none;text-orientation:mixed;shape-padding:0;isolation:auto;mix-blend-mode:normal" transform="translate(146.118 -358.516)"></path></g></svg>