<svg xmlns="http://www.w3.org/2000/svg" enable-background="new 0 0 47.5 47.5" viewBox="0 0 47.5 47.5" id="guitar"><defs><clipPath id="a"><path d="M0 38h38V0H0v38Z"></path></clipPath></defs><g clip-path="url(#a)" transform="matrix(1.25 0 0 -1.25 0 47.5)"><path fill="#f18f26" d="M0 0c-1.693 1.692-3.594 2.587-5.497 2.587-1.626 0-3.19-.668-4.402-1.88-1.519-1.519-1.728-2.39-1.866-2.966-.07-.295-.105-.421-.255-.57a.505.505 0 0 1 .085-.775c.013-.009.324-.22.368-.651.039-.394-.13-1.08-1.16-2.11-.629-.629-1.252-.948-1.85-.948-.981 0-1.649.87-1.653.876a.498.498 0 0 1-.877-.138c-.221-.663-.251-.668-.535-.709-.59-.086-1.578-.23-3.624-2.276-1.675-1.674-2.265-3.766-1.708-6.047.395-1.618 1.408-3.359 2.708-4.66 1.408-1.408 3.803-2.912 6.301-2.912h.001c1.654 0 3.136.643 4.405 1.912 2.046 2.046 2.189 3.034 2.275 3.624.041.285.046.314.709.535a.499.499 0 0 1 .14.877c-.008.005-.805.619-.873 1.527-.047.638.27 1.302.944 1.975.963.963 1.622 1.166 2.005 1.166a.925.925 0 0 0 .752-.367.5.5 0 0 1 .779-.091c.149.15.275.185.57.255.576.139 1.446.348 2.965 1.867C2.994-7.612 3.663-3.664 0 0" transform="translate(24.912 24.913)"></path><path fill="#292f33" d="m0 0-13.878-15L-16-12.879-1 1l1-1Z" transform="translate(33 32)"></path><path fill="#f18f26" d="M0 0a1.13 1.13 0 0 0-.001-1.592l-3.187-3.186a1.129 1.129 0 0 0-1.592 0l-1.39 1.389a1.13 1.13 0 0 0 .001 1.593l3.187 3.186a1.13 1.13 0 0 0 1.592-.001L0 0Z" transform="translate(35.704 34.315)"></path><path fill="#642116" d="M0 0a1 1 0 1 0-2 0 1 1 0 0 0 2 0" transform="translate(35 29)"></path><path fill="#642116" d="M0 0a1 1 0 1 0-2 0 1 1 0 1 0 2 0" transform="translate(37 31)"></path><path fill="#642116" d="M0 0a1 1 0 1 0-2 0 1 1 0 1 0 2 0" transform="translate(30 34)"></path><path fill="#642116" d="M0 0a1 1 0 1 0-2 0 1 1 0 1 0 2 0" transform="translate(32 36)"></path><path fill="#292f33" d="m0 0 4 5s.999 0 2-1c1-1 1-2 1-2L2-2 0 0Z" transform="translate(3 5)"></path><path fill="#fee7b8" d="M0 0a.997.997 0 0 0-.707.293l-3 3a.999.999 0 1 0 1.414 1.414l3-3A.999.999 0 0 0 0 0" transform="translate(14 10)"></path></g></svg>